<?xml version="1.0" encoding="utf-8"?>
<!-- Generator: Adobe Illustrator 26.0.0, SVG Export Plug-In . SVG Version: 6.00 Build 0)  -->
<svg version="1.1" id="Layer_1" xmlns="http://www.w3.org/2000/svg" xmlns:xlink="http://www.w3.org/1999/xlink" x="0px" y="0px"
	 viewBox="0 0 1080 1080" style="enable-background:new 0 0 1080 1080;" xml:space="preserve">
<style type="text/css">
	.st0{fill:#F2F3F4;}
	.st1{clip-path:url(#SVGID_00000072266084437836254010000012217080403107710853_);fill:#F2F3F4;}
</style>
<path class="st0" d="M98.41,776.56c11.4,0,26.6,1.9,39.9,5.7v30.4h-17.1c-3.8-7.6-9.5-15.2-22.8-15.2c-15.2,0-28.5,13.3-28.5,41.8
	c0,26.6,13.3,40.02,30.4,40.02c13.3,0,17.1-7.72,20.9-15.32h17.1v30.52c-13.3,3.8-28.5,5.7-39.9,5.7c-36.1,0-57-19-57-60.92
	C41.41,797.46,62.31,776.56,98.41,776.56z"/>
<path class="st0" d="M187.71,797.46h-17.1l3.8-19h57.12l30.4,95c0,3.92,1.9,5.82,5.7,5.82h5.7v19h-51.3v-19h9.5l-5.7-22.92h-34.32
	l-7.6,22.92h11.4v19h-45.6v-19h7.6c3.8,0,3.8-1.9,5.7-5.82L187.71,797.46z M210.63,801.26h-1.9l-13.42,38h26.72L210.63,801.26z"/>
<path class="st0" d="M444.46,898.28h-47.5v-19h7.6v-68.52l-30.4,87.52h-22.92l-32.3-87.52v68.52h7.6v19h-43.7v-19h5.7
	c3.8,0,5.7-1.9,5.7-3.8v-74.22c0-1.9-1.9-3.8-3.8-3.8h-7.6v-19h55.1l28.5,79.8l28.62-79.8h49.4v19h-5.7c-3.8,0-3.8,1.9-3.8,3.8
	v74.22c0,1.9,0,3.8,3.8,3.8h5.7V898.28z"/>
<path class="st0" d="M524.26,778.46c26.72,0,40.02,17.1,40.02,38c0,24.7-15.2,39.9-40.02,39.9h-20.9v22.92h11.4v19h-51.3v-19h5.7
	c3.8,0,3.8-1.9,3.8-3.8v-74.22c0-1.9,0-3.8-3.8-3.8h-5.7v-19H524.26z M503.36,799.36v36.1h13.3c13.3,0,17.1-9.5,17.1-17.1
	c0-9.5-3.8-19-17.1-19H503.36z"/>
<path class="st0" d="M585.18,797.46h-7.6v-19h91.2v34.2h-15.2l-5.7-13.3h-30.4v28.5h34.2v17.1h-34.2v32.42h32.3l5.7-13.42h15.2
	v34.32h-93.1v-19h5.7c3.8,0,5.7-1.9,5.7-3.8v-74.22C588.98,799.36,587.08,797.46,585.18,797.46z"/>
<path class="st0" d="M746.8,776.56c9.5,0,24.7,1.9,38,5.7v30.4h-17.1c-1.9-7.6-7.6-15.2-22.8-15.2c-15.2,0-26.6,13.3-26.6,41.8
	c0,26.6,11.4,40.02,28.5,40.02c13.3,0,19-7.72,20.9-15.32h17.1v30.52c-13.3,3.8-28.5,5.7-38,5.7c-38,0-59.02-19-59.02-60.92
	C687.78,797.46,708.8,776.56,746.8,776.56z"/>
<path class="st0" d="M927.43,879.28v19h-51.3v-19h11.4v-32.42h-45.72v32.42h9.5v19h-49.4v-19h5.7c3.8,0,5.7-1.9,5.7-3.8v-74.22
	c0-1.9-1.9-3.8-3.8-3.8h-7.6v-19h49.4v19h-9.5v30.4h45.72v-30.4h-11.4v-19h51.3v19h-7.6c-1.9,0-3.8,1.9-3.8,3.8v74.22
	c0,1.9,1.9,3.8,5.7,3.8H927.43z"/>
<path class="st0" d="M950.23,797.46h-5.7v-19h91.32v34.2h-15.32l-5.7-13.3h-30.4v28.5h34.2v17.1h-34.2v32.42h32.3l5.7-13.42h15.32
	v34.32h-93.22v-19h5.7c3.8,0,5.7-1.9,5.7-3.8v-74.22C955.93,799.36,954.03,797.46,950.23,797.46z"/>
<path class="st0" d="M64.21,970.48c0,13.3,7.6,19,17.1,19c3.8,0,5.7,0,7.6,0v-11.4h-9.5v-11.4h24.7v30.52
	c-7.6,1.9-17.1,3.8-24.7,3.8c-19,0-30.4-11.52-30.4-32.42c0-19,13.3-30.4,32.3-30.4c5.7,0,15.2,1.9,20.9,1.9v15.2h-9.5
	c0-3.8-3.8-5.7-11.4-5.7C71.81,949.58,64.21,953.38,64.21,970.48z"/>
<path class="st0" d="M144.01,938.18c19,0,30.4,11.4,30.4,32.3c0,19-11.4,30.52-30.4,30.52c-17.1,0-28.5-11.52-28.5-30.52
	C115.51,949.58,126.91,938.18,144.01,938.18z M144.01,989.48c7.6,0,13.3-3.8,13.3-19c0-17.1-5.7-20.9-13.3-20.9
	c-7.6,0-13.3,3.8-13.3,20.9C130.71,985.68,136.41,989.48,144.01,989.48z"/>
<path class="st0" d="M183.91,991.38h3.8c0,0,1.9-1.9,1.9-3.8v-36.1c0-1.9-1.9-3.8-1.9-3.8h-3.8v-7.6h30.52c13.3,0,19,7.6,19,15.2
	c0,5.7-1.9,9.5-5.7,13.3c5.7,3.8,7.6,7.6,7.6,13.3c0,11.4-9.5,17.22-22.8,17.22h-28.62V991.38z M204.93,949.58v15.2h7.6
	c3.8,0,5.7-3.8,5.7-7.6s-1.9-7.6-7.6-7.6H204.93z M204.93,974.28v15.2h5.7c7.6,0,9.5-3.8,9.5-7.6c0-5.7-1.9-7.6-7.6-7.6H204.93z"/>
<path class="st0" d="M250.53,947.68h-3.8v-7.6h24.7v7.6h-1.9c-1.9,0-1.9,1.9-1.9,1.9v39.9c0,0,0,1.9,1.9,1.9h1.9v7.72h-24.7v-7.72
	h3.8c1.9,0,1.9-1.9,1.9-3.8v-36.1C252.43,949.58,252.43,947.68,250.53,947.68z"/>
<path class="st0" d="M286.63,947.68h-3.8v-7.6h47.5v17.1h-7.6l-3.8-7.6h-15.2v15.2h17.1v7.6h-17.1v17.1h17.1l1.9-7.6h7.6v17.22
	h-47.5v-7.72h3.8c1.9,0,1.9-1.9,1.9-3.8v-36.1C288.53,949.58,288.53,947.68,286.63,947.68z"/>
<path class="st0" d="M341.74,991.38h3.8c1.9,0,1.9-1.9,1.9-3.8v-36.1c0-1.9,0-3.8-1.9-3.8h-3.8v-7.6h30.52
	c15.2,0,22.8,7.6,22.8,17.1c0,7.6-3.8,13.3-11.4,15.2c7.6,1.9,9.5,7.6,9.5,11.4v1.9c0,3.8,0,3.8,5.7,5.7v7.72
	c-1.9,1.9-3.8,1.9-7.6,1.9c-7.6,0-13.3-3.8-13.3-13.42v-3.8c0-3.8-1.9-7.6-7.72-7.6h-7.6v15.2h3.8v7.72h-24.7V991.38z
	 M362.64,966.68h7.6c7.72,0,9.62-5.7,9.62-9.5c0-1.9-1.9-7.6-9.62-7.6h-7.6V966.68z"/>
<path class="st0" d="M465.36,999.1h-15.2l-24.7-38.12v30.4h5.7v7.72h-22.8v-7.72h1.9c1.9,0,3.8-1.9,3.8-3.8v-36.1
	c0-1.9-1.9-3.8-1.9-3.8h-3.8v-7.6h20.9l24.7,38v-30.4h-5.7v-7.6h22.8v7.6h-3.8c-1.9,0-1.9,1.9-1.9,3.8V999.1z"/>
<path class="st0" d="M509.06,938.18c19,0,30.4,11.4,30.4,32.3c0,19-11.4,30.52-30.4,30.52c-17.1,0-28.5-11.52-28.5-30.52
	C480.56,949.58,491.96,938.18,509.06,938.18z M509.06,989.48c7.6,0,13.3-3.8,13.3-19c0-17.1-5.7-20.9-13.3-20.9
	c-7.6,0-13.3,3.8-13.3,20.9C495.76,985.68,501.46,989.48,509.06,989.48z"/>
<path class="st0" d="M630.78,968.58c0,20.9-11.4,30.52-28.5,30.52h-30.4v-7.72h3.8c1.9,0,1.9-1.9,1.9-3.8v-36.1c0-1.9,0-3.8-1.9-3.8
	h-3.8v-7.6h30.4C619.38,940.08,630.78,949.58,630.78,968.58z M600.38,949.58h-7.6v39.9h7.6c11.4,0,15.2-11.4,15.2-20.9
	C615.58,959.08,611.78,949.58,600.38,949.58z"/>
<path class="st0" d="M644.08,947.68h-3.8v-7.6h47.5v17.1h-7.6l-3.8-7.6h-15.2v15.2h17.1v7.6h-17.1v17.1h15.2l3.8-7.6h7.6v17.22
	h-47.5v-7.72h3.8c1.9,0,1.9-1.9,1.9-3.8v-36.1C645.98,949.58,645.98,947.68,644.08,947.68z"/>
<path class="st0" d="M758.2,991.38h3.8v7.72h-26.6v-7.72h3.8c1.9,0,1.9-1.9,1.9-3.8v-38h-11.4v9.5h-9.5v-19h55.1v19h-7.6l-1.9-9.5
	h-9.5v39.9C756.3,989.48,756.3,991.38,758.2,991.38z"/>
<path class="st0" d="M813.3,938.18c19,0,30.4,11.4,30.4,32.3c0,19-11.4,30.52-30.4,30.52c-17.1,0-28.5-11.52-28.5-30.52
	C784.8,949.58,796.2,938.18,813.3,938.18z M813.3,989.48c7.6,0,13.3-3.8,13.3-19c0-17.1-5.7-20.9-13.3-20.9
	c-7.6,0-13.3,3.8-13.3,20.9C800,985.68,805.7,989.48,813.3,989.48z"/>
<path class="st0" d="M910.33,968.58c0,20.9-11.4,30.52-28.5,30.52h-28.62v-7.72h1.9c1.9,0,3.8-1.9,3.8-3.8v-36.1
	c0-1.9-1.9-3.8-1.9-3.8h-3.8v-7.6h28.62C898.92,940.08,910.33,949.58,910.33,968.58z M879.93,949.58h-5.7v39.9h5.7
	c13.3,0,15.2-11.4,15.2-20.9C895.13,959.08,893.23,949.58,879.93,949.58z"/>
<path class="st0" d="M950.23,938.18c17.1,0,28.5,11.4,28.5,32.3c0,19-11.4,30.52-28.5,30.52c-17.1,0-28.5-11.52-28.5-30.52
	C921.72,949.58,933.13,938.18,950.23,938.18z M950.23,989.48c7.6,0,13.3-3.8,13.3-19c0-17.1-5.7-20.9-13.3-20.9
	c-7.6,0-13.3,3.8-13.3,20.9C936.93,985.68,942.63,989.48,950.23,989.48z"/>
<path class="st0" d="M1022.43,983.78c0-13.3-32.3-5.7-32.3-26.6c0-13.3,11.4-19,24.7-19c5.7,0,13.3,1.9,19,3.8v15.2h-7.6
	c-1.9-5.7-5.7-9.5-11.4-9.5c-5.7,0-9.5,1.9-9.5,7.6c0,9.5,32.42,3.8,32.42,24.7c0,15.32-13.42,21.02-24.82,21.02
	c-5.7,0-15.2-1.9-22.8-3.8v-15.32h9.5c0,5.7,5.7,9.5,11.4,9.5C1016.73,991.38,1022.43,987.58,1022.43,983.78z"/>
<polygon class="st0" points="758.2,597.71 790.5,578.71 790.5,399.99 758.2,399.99 "/>
<path class="st0" d="M836.11,399.99h-20.9v165.42c19-11.4,32.3-32.3,32.3-55.22v-98.8C847.51,405.69,841.81,399.99,836.11,399.99z"
	/>
<polygon class="st0" points="701.08,631.92 733.5,612.92 733.5,399.99 701.08,399.99 "/>
<g>
	<defs>
		<rect id="SVGID_1_" x="230.46" y="22" width="619.42" height="699.22"/>
	</defs>
	<clipPath id="SVGID_00000062161761809527223820000004551946468634482066_">
		<use xlink:href="#SVGID_1_"  style="overflow:visible;"/>
	</clipPath>
	<path style="clip-path:url(#SVGID_00000062161761809527223820000004551946468634482066_);fill:#F2F3F4;" d="M815.2,337.17h20.9
		c5.7,0,11.4-3.8,11.4-11.4v-97.02c0-24.7-13.3-45.6-32.3-57l-104.5-60.92L434.96,270.55v-28.5L685.88,97.53l-32.3-19L434.96,204.05
		v-28.5L628.88,65.23l-32.3-19l-161.62,93.1v-28.5l136.92-79.92c-20.9-11.4-45.72-11.4-64.72,0l-104.5,60.92v317.66l-24.7-13.3
		V105.13l-32.42,19v252.94l-24.7-13.3V139.33l-32.3,19.12v186.32l-24.7-15.2V171.75c-20.9,11.4-32.3,32.3-32.3,57v119.82
		l275.63,159.72l-24.7,13.42L231.53,377.07v38.12l216.72,125.52l-22.8,15.2L231.53,443.69v38l159.72,91.32l-24.82,15.2l-134.9-78.02
		c0,22.92,11.4,45.72,32.3,57.12l102.6,58.9l277.65-159.72v28.5L391.26,639.63l32.3,19l220.52-125.52v28.5L448.26,673.84l32.3,19
		l163.52-95.12v28.5l-138.82,79.92h1.9c19,11.4,43.82,11.4,64.72,0l104.5-60.8V399.99h-22.8c-5.7,0-9.5,5.7-9.5,11.4v17.1
		l-104.5,60.8l-104.62-60.8V308.67l104.62-60.92l104.5,60.92v17.1c0,7.6,3.8,11.4,9.5,11.4h22.8v-28.5v-9.5c0-5.7-3.8-11.4-9.5-15.2
		l-95-55.22l24.7-13.3l95,55.1c5.7,3.92,9.5,9.62,9.5,15.32v51.3h32.42v-70.42c0-5.7-3.8-11.4-9.5-15.2l-95.12-55.1l24.7-13.3
		l95.12,55.1c5.7,1.9,9.5,7.6,9.5,13.3v85.62h32.3V234.45c0-7.6-3.8-13.3-9.5-15.2l-95.12-55.1l24.82-15.32l89.3,51.42
		c9.5,5.7,15.2,15.2,15.2,26.6V337.17z"/>
</g>
</svg>
