<svg id="Capa_1" data-name="Capa 1" xmlns="http://www.w3.org/2000/svg" xmlns:xlink="http://www.w3.org/1999/xlink" viewBox="0 0 833.69 215.9"><defs><style>.cls-1{fill:none;}.cls-2{clip-path:url(#clip-path);}.cls-3{fill:#f1f2f4;}.cls-4{clip-path:url(#clip-path-2);}.cls-5{clip-path:url(#clip-path-3);}</style><clipPath id="clip-path" transform="translate(-122.56 -600.12)"><rect class="cls-1" x="122.49" y="600.22" width="138.48" height="215.89"/></clipPath><clipPath id="clip-path-2" transform="translate(-122.56 -600.12)"><rect class="cls-1" x="122.49" y="600.02" width="833.96" height="216.3"/></clipPath><clipPath id="clip-path-3" transform="translate(-122.56 -600.12)"><rect class="cls-1" x="304.89" y="600.02" width="192.41" height="216.3"/></clipPath></defs><g class="cls-2"><path class="cls-3" d="M159.46,673.75h32.07V716H159.46Zm26.35,30.85v-4.09s-3.88-4.08-4.7-6.54c-.82-2.65-.41-6.53-.2-6.53h2.45v-2h1.43v-3.27h-2v-1.64h.61v-1H183V678h-.82v1.43h-.61V678h-.82v1.43h-.61V678h-.82v1.43h-.2v1h.41v1.64h-2.25v-1.64h.41v-1h-.2V678h-.82v1.43H176V678h-.82v1.43h-.82V678h-.82v1.43h-.2v1h.41v1.64h-2.25v-1.64h.61v-1h-.4V678h-.82v1.43h-.61V678h-.82v1.43h-.61V678H168v1.43h-.2v1h.4v1.64h-1.83v3.27h1.22v2h2.45c.21,0,.61,3.88-.2,6.53-.82,2.46-4.7,6.54-4.7,6.54v4.09h-1.84v5.51h10v-6.94s.41-2,2-2c1.84,0,2.05,2,2.05,2v6.94h10.21V704.6Zm-13.89-15.73h2.66v3.88h-2.66Zm7.15,3.88h-2.66v-3.88h2.66Zm-2.25,3.68c0,1-.61,1.83-1.22,1.83a1.64,1.64,0,0,1-1.43-1.83c0-1.23.61-2,1.43-2C176.21,694.38,176.82,695.2,176.82,696.43Zm22.27,62.29c-4.7,0-6.74,1.64-7.56,2.66V716H223.6v35.54c0,5.11-2.45,6.13-6.74,6.13-1.84,0-4.29.21-7.15.41A92.35,92.35,0,0,1,199.09,758.72Zm18.58-10.21v-4.08s-3.88-4.09-4.69-6.74a14.14,14.14,0,0,1-.21-6.54h2.45v-1.84h1.43V726h-1.84v-1.63h.41v-1.23H215V722h-1v1.22h-.62V722h-.81v1.22H212V722h-.81v1.22h-.21v1.23h.41V726h-2.25v-1.63h.41v-1.23h-.2V722h-.82v1.22h-.61V722h-.82v1.22h-.61V722h-.82v1.22h-.41v1.23h.62V726h-2.25v-1.63H204v-1.23h-.21V722H203v1.22h-.82V722h-.82v1.22h-.61V722h-.82v1.22h-.2v1.23h.41V726h-1.64v3.27h1.23v1.84H202a14.14,14.14,0,0,1-.21,6.54c-.82,2.65-4.7,6.74-4.7,6.74v4.08h-1.83V754h10.21v-6.95s.2-2,2-2,2,2,2,2V754h10.22v-5.52Zm-13.89-15.73h2.86v3.88h-2.86Zm7.36,3.88h-2.86v-3.88h2.86Zm-2.45,3.48c0,1.22-.41,2-1.23,2s-1.43-.82-1.43-2c0-1,.61-1.84,1.43-1.84S208.69,739.11,208.69,740.14Zm14.91-26.35v-.62a3.33,3.33,0,0,0-1.23.62,2.41,2.41,0,0,1-1.43.41,3.18,3.18,0,0,1-1.63-.41,2,2,0,0,0-1.64-.62,2.51,2.51,0,0,0-1.84.62,2.38,2.38,0,0,1-1.43.41,2,2,0,0,1-1.42-.41,2.88,2.88,0,0,0-1.84-.62,2.84,2.84,0,0,0-1.84.62,2.7,2.7,0,0,1-2.86,0,2.49,2.49,0,0,0-1.84-.62,2.86,2.86,0,0,0-1.84.62,2,2,0,0,1-1.43.41,2.43,2.43,0,0,1-1.43-.41,2.49,2.49,0,0,0-1.84-.62,2,2,0,0,0-1.63.62,3.21,3.21,0,0,1-1.63.41,3,3,0,0,1-1.43-.41,1.56,1.56,0,0,0-1-.41,3.22,3.22,0,0,0-.82-.21l-.21.41.21.21h.82a1.49,1.49,0,0,1,.81.41,3.24,3.24,0,0,0,1.64.4,3.45,3.45,0,0,0,1.83-.4,2.36,2.36,0,0,1,1.43-.41,3.13,3.13,0,0,1,1.64.41,3.22,3.22,0,0,0,1.63.4,4.15,4.15,0,0,0,1.84-.4,2.34,2.34,0,0,1,1.43-.41,1.91,1.91,0,0,1,1.43.41,5,5,0,0,0,1.84.4,4.15,4.15,0,0,0,1.84-.4,2.7,2.7,0,0,1,2.86,0,4.14,4.14,0,0,0,1.83.4,5,5,0,0,0,1.84-.4,2,2,0,0,1,1.43-.41,2.34,2.34,0,0,1,1.43.41,4.15,4.15,0,0,0,1.84.4,3.24,3.24,0,0,0,1.64-.4A1.52,1.52,0,0,1,223.6,713.79Zm-32.07-2.45a3.19,3.19,0,0,1,1.63.4,3.13,3.13,0,0,0,1.64.41,3.34,3.34,0,0,0,1.83-.41,2.44,2.44,0,0,1,1.43-.4,3.24,3.24,0,0,1,1.64.4,3.11,3.11,0,0,0,1.63.41,4,4,0,0,0,1.84-.41,2.41,2.41,0,0,1,1.43-.4,2,2,0,0,1,1.43.4,4.75,4.75,0,0,0,1.84.41,4,4,0,0,0,1.84-.41,2.41,2.41,0,0,1,1.43-.4,2.44,2.44,0,0,1,1.43.4,4,4,0,0,0,1.83.41,4.75,4.75,0,0,0,1.84-.41,2,2,0,0,1,1.43-.4,2.41,2.41,0,0,1,1.43.4,4,4,0,0,0,1.84.41,3.13,3.13,0,0,0,1.64-.41c.2-.2.61-.2,1-.4v-.41a1.71,1.71,0,0,0-1.23.41,2.41,2.41,0,0,1-1.43.4,3.19,3.19,0,0,1-1.63-.4,3.13,3.13,0,0,0-1.64-.41,4,4,0,0,0-1.84.41,2.39,2.39,0,0,1-1.43.4,2,2,0,0,1-1.42-.4,4.84,4.84,0,0,0-1.84-.41,4.75,4.75,0,0,0-1.84.41,2.76,2.76,0,0,1-2.86,0,4,4,0,0,0-1.84-.41,4.8,4.8,0,0,0-1.84.41,2,2,0,0,1-1.43.4,2.44,2.44,0,0,1-1.43-.4,4,4,0,0,0-1.84-.41,3.11,3.11,0,0,0-1.63.41,3.22,3.22,0,0,1-1.63.4,3,3,0,0,1-1.43-.4,3.41,3.41,0,0,0-1.84-.41l-.21.2Zm29.41-4.29a3.18,3.18,0,0,1-1.63-.41,3,3,0,0,0-1.64-.61,3.86,3.86,0,0,0-1.84.61,2.38,2.38,0,0,1-1.43.41,2,2,0,0,1-1.42-.41,4.87,4.87,0,0,0-1.84-.61,4.76,4.76,0,0,0-1.84.61,2.41,2.41,0,0,1-1.43.41.72.72,0,0,1-.61-.21A36.24,36.24,0,0,0,212,705c2.45-1.43,2.45-2.24,2.45-2.24a4,4,0,0,0,2.25-2.25c.21,0,.21-.2.41-.41v1.43c-.2,0-.41.41-.41.62s.21.61.41.61v.41h-.41v.4h.41v1.64c-.41-.21-.61-.41-.61-.82l-.21-.2-.2.2a1.25,1.25,0,0,0,2.45,0l-.2-.2-.21.2c0,.41-.2.61-.61.82v-1.64h.41v-.4h-.41v-.41c.2,0,.41-.41.41-.61s-.21-.62-.41-.62V699.9h-.21a11.17,11.17,0,0,0,.62-1,1.17,1.17,0,0,0,.41,1.22c.81.41,2-.81.61-1.84a9.72,9.72,0,0,1,2-1.22c1.23-.61,2.25-1.23,2-1.64a1.5,1.5,0,0,0-.81.21l-1.84-5.52-.21-.2v-.61c.41,0,1-.21,1.43.2a.86.86,0,0,0,1.23,0l-.41-.82.61-.81c-.61.2-.81,0-1.43-.41-.4-.41-1-.21-1.43-.21V687c.21-.2.41-.41.41-.61,0-.41-.41-.62-.81-.62a.66.66,0,0,0-.62.62c0,.2.21.41.41.61v4.09l-.2.2-2.05,3.88a20.43,20.43,0,0,1-1.22-3.88,1.07,1.07,0,0,0,2,.2c.41.41.82.41,1-.2l-2.45-1.43-.2-.41-.62-.61v-1.23H216a2,2,0,0,1,2,1c1.84-1.63-.2-2.86.61-3.47a1.06,1.06,0,0,0,.21-1.63L216,681.92h-.21v-1a2.43,2.43,0,0,1,1.64.21c.41.61,1,0,1,0l-.41-.82.61-.82c-.4.21-.81,0-1.43-.41-.2-.4-1-.2-1.43,0v-.4c.41-.21.41-.41.41-.62a.61.61,0,1,0-1.22,0,.78.78,0,0,0,.2.62v2.86l-.61.61h-1.23c0,1.22.82,1.84.41,3.06a6,6,0,0,1-.41,1.64,2.15,2.15,0,0,0,1.84.81v1.43l-2.65-1.43c0,1.43.61,3.27,2.65,3.07v7.76c0,.2-.2.2-.41.2a7.76,7.76,0,0,1-1.83-1.84c.61-1.43-.21-3.26.2-3.26a1,1,0,0,0,1-1l-4.08-2.25.2-.21v-.61l-.61-.61V687h.2a2.29,2.29,0,0,1,2,.82c1.64-1.64-.2-2.86.62-3.27a1.23,1.23,0,0,0,.2-1.63l-2.86-1.84h-.2v-1c.41,0,1-.21,1.43.2a.84.84,0,0,0,1.22,0l-.41-.82.62-.81c-.41.2-.82,0-1.43-.41-.41-.41-1-.21-1.43,0v-.41c.2-.21.41-.41.41-.61a.55.55,0,0,0-.62-.62.54.54,0,0,0-.61.62.77.77,0,0,0,.2.61v2.86l-.61.61h-1.22c0,1.23.61,1.84.4,3.07a6,6,0,0,1-.4,1.63,2.15,2.15,0,0,0,1.83.82v2l-.4.61-1.43-.82c.2,0,.4-.2.4-.61L204,686l-.21-.21-.61-.61v-2.86a2.52,2.52,0,0,1,2,.21c.62.61,1.43,0,1.43,0l-.61-1,.82-1c-.62.21-1,0-1.84-.61-.41-.41-1.43-.2-1.84-.2v-.41a.44.44,0,0,0,.41-.41c0-.41-.2-.82-.61-.82s-.62.41-.62.82c0,.2,0,.41.21.41v5.92L198.88,683c0,2,.61,4.69,3.68,4.28v3.68l-3.68-2.25c-.41.41-.41,1,0,1.23,1.23,1.23,1.23,3.68,0,5.51,0,0,.82-.2,1.84,1,.82,1,1,1.63,1.84,1.83v.62l-2.86-.82v.2a3.1,3.1,0,0,0-1.43-.2h-.21l-2-7.35a.75.75,0,0,0,.21-.62c-.21-.4-.62-.61-.82-.4-.41,0-.61.4-.61.81.2.21.41.41.61.41a2.2,2.2,0,0,0-2,1.64c0,.81.41,1.63,0,2.45-.41.61-1,1.43-.82,2.24a9.46,9.46,0,0,1,.2,1.64,8.91,8.91,0,0,1,.62-2,3.44,3.44,0,0,1,.61,2,1.63,1.63,0,0,0,.82-1.43c0-1-.21-1.64.41-2.25a4.32,4.32,0,0,1,1.22-.41l1,3.27a5.5,5.5,0,0,0-4.08,4.29.65.65,0,0,1-.41.2v1.23c.2,0,.2,0,.41-.21a6.14,6.14,0,0,0,1.63,3.48h-.2a3,3,0,0,1-1.43-.41,3.15,3.15,0,0,0-1.84-.61l-.21.4.21.21a3.09,3.09,0,0,1,1.63.41,3.23,3.23,0,0,0,1.64.41h.61a4.91,4.91,0,0,0,2.86,1l.41-.21v.21a25.08,25.08,0,0,0,7.76-1.43l.2.2a2.54,2.54,0,0,0,1.23.21,4.14,4.14,0,0,0,1.84-.41,2.7,2.7,0,0,1,2.86,0,4.12,4.12,0,0,0,1.83.41,4.94,4.94,0,0,0,1.84-.41,2,2,0,0,1,1.43-.41,2.34,2.34,0,0,1,1.43.41,4.14,4.14,0,0,0,1.84.41,3.23,3.23,0,0,0,1.64-.41,1.52,1.52,0,0,1,1-.41v-.41a1.71,1.71,0,0,0-1.23.41A2.41,2.41,0,0,1,220.94,707.05Zm-3.47-4.9c0,.2,0,.2-.21.2s-.2,0-.2-.2,0-.21.2-.21S217.47,701.94,217.47,702.15Zm2-10.42v5.1l.61-.4v-5.72l1.64,4.9a18,18,0,0,0-3.27,1.84,3.9,3.9,0,0,1-1-1.84Zm-1.22,5.92-.41.21h.2a9.2,9.2,0,0,0-2,.4l1.22-2.24A4.54,4.54,0,0,0,218.29,697.65Zm-2.46-7.15c0,.21.21.41.21.62l-.21-.21Zm0,1.84c.41,1,.82,2.25,1.23,3.27l-1.23,2.25Zm0,5.92h0l-.4.21Zm-3.26-.81H213l.61.61a7.62,7.62,0,0,0-1.23.2.7.7,0,0,0-.2-.4C212.36,697.65,212.57,697.65,212.57,697.45Zm-.41,1.22a8.56,8.56,0,0,0,1.63-.41l.61.62c-.61.2-1.22.61-1.83.81a1.07,1.07,0,0,0-.41-.81Zm-2.45.82a4,4,0,0,0,2-.2l.2-.21c.21.21.21.41.41.82-.61.2-1.43.61-2,.82-.2.2-.41.2-.61.4Zm-13.89,5.92c-.21,0-.41-.41-.41-.61,0-.41.2-.61.41-.61a.54.54,0,0,1,.61.61A.65.65,0,0,1,195.82,705.41Zm.41-4.29a.41.41,0,1,1,.4-.4A.43.43,0,0,1,196.23,701.12Zm3.67-1a.55.55,0,0,1,.62.62c0,.2-.21.4-.62.4a.44.44,0,0,1-.41-.4C199.49,700.31,199.7,700.1,199.9,700.1Zm.41,5.72a.61.61,0,1,1,.61-.61A.54.54,0,0,1,200.31,705.82Zm7.35-3.88v-.2a18.89,18.89,0,0,1-2.24-3.27l.41-.21h.2a14.59,14.59,0,0,0,3.06,3.07A10.2,10.2,0,0,0,207.66,701.94Zm1.43-2.65v1.83a40,40,0,0,1-2.86-3.06c.21-.41.41-.61.41-1A3.1,3.1,0,0,0,209.09,699.29Zm-5.92-11.85c.61,2,2,1.84,2.66,1.43a2.27,2.27,0,0,0,.2,1,3.78,3.78,0,0,1,0,3.06l-2.86-1.63Zm2.66,15.11c0-2-1.64-3.47-2.45-3.47h-.21v-.61a3,3,0,0,0,2,.2,29.32,29.32,0,0,0,2,3.27A11.73,11.73,0,0,1,205.83,702.55Zm-14.3,6.34a2,2,0,0,1,1.63.61,3.23,3.23,0,0,0,1.64.41,3.43,3.43,0,0,0,1.83-.41,1.6,1.6,0,0,1,1.43-.61,2,2,0,0,1,1.64.61,3.21,3.21,0,0,0,1.63.41,4.14,4.14,0,0,0,1.84-.41,1.58,1.58,0,0,1,1.43-.61c.82,0,1.23.2,1.43.61a4.94,4.94,0,0,0,1.84.41,4.14,4.14,0,0,0,1.84-.41,2,2,0,0,1,2.86,0,4.12,4.12,0,0,0,1.83.41,4.94,4.94,0,0,0,1.84-.41c.21-.41.62-.61,1.43-.61a1.58,1.58,0,0,1,1.43.61,4.14,4.14,0,0,0,1.84.41,2,2,0,0,0,1.64-.62,8.72,8.72,0,0,1,1-.2v-.61a8.7,8.7,0,0,1-1.23.41,2.41,2.41,0,0,1-1.43.4,3.19,3.19,0,0,1-1.63-.4,3.13,3.13,0,0,0-1.64-.41,4,4,0,0,0-1.84.41,2.39,2.39,0,0,1-1.43.4,2,2,0,0,1-1.42-.4,4.84,4.84,0,0,0-1.84-.41,4.75,4.75,0,0,0-1.84.41,2.76,2.76,0,0,1-2.86,0,4,4,0,0,0-1.84-.41,4.8,4.8,0,0,0-1.84.41,2,2,0,0,1-1.43.4,2.44,2.44,0,0,1-1.43-.4,4,4,0,0,0-1.84-.41,3.11,3.11,0,0,0-1.63.41,3.22,3.22,0,0,1-1.63.4,3,3,0,0,1-1.43-.4,3.41,3.41,0,0,0-1.84-.41l-.21.2Zm-32.48,46.56h-.2l-.21.41.41.21h.21C159.26,755.86,159.05,755.66,159.05,755.45Zm4.9,1a3.13,3.13,0,0,1,1.64-.41,2.91,2.91,0,0,1,1.43.41,3.53,3.53,0,0,0,1.84.4,3.22,3.22,0,0,0,1.63-.4,3.11,3.11,0,0,1,1.63-.41,2.84,2.84,0,0,1,1.43.41,3.53,3.53,0,0,0,1.84.4,3.24,3.24,0,0,0,1.64-.4,2.87,2.87,0,0,1,1.43-.41,3.11,3.11,0,0,1,1.63.41,3.22,3.22,0,0,0,1.63.4,3.5,3.5,0,0,0,1.84-.4,2.91,2.91,0,0,1,1.43-.41,3.13,3.13,0,0,1,1.64.41,3.19,3.19,0,0,0,1.63.4,3.53,3.53,0,0,0,1.84-.4,1.91,1.91,0,0,1,1.43-.41l.2-.41-.2-.21a3.51,3.51,0,0,0-1.84.41c-.2.41-.61.62-1.43.62a1.86,1.86,0,0,1-1.43-.62,3.51,3.51,0,0,0-1.84-.41,3.21,3.21,0,0,0-1.63.41,2,2,0,0,1-1.64.62,1.86,1.86,0,0,1-1.43-.62,3.43,3.43,0,0,0-1.83-.41,3.23,3.23,0,0,0-1.64.41,1.85,1.85,0,0,1-1.43.62,2,2,0,0,1-1.63-.62,3.23,3.23,0,0,0-1.64-.41,3.43,3.43,0,0,0-1.83.41,1.86,1.86,0,0,1-1.43.62,2,2,0,0,1-1.64-.62,3.18,3.18,0,0,0-1.63-.41,3.51,3.51,0,0,0-1.84.41,1.86,1.86,0,0,1-1.43.62,2,2,0,0,1-1.63-.62.63.63,0,0,1-.41-.2c.41.41.61.82,1,1a1.55,1.55,0,0,0,1,.2A3.17,3.17,0,0,0,164,756.48Zm-1.63-4.29a2,2,0,0,0,1.63-.62,3.24,3.24,0,0,1,1.64-.4,3,3,0,0,1,1.43.4,2.21,2.21,0,0,0,1.84.62,2,2,0,0,0,1.63-.62,3.22,3.22,0,0,1,1.63-.4,3,3,0,0,1,1.43.4,2.21,2.21,0,0,0,1.84.62,2,2,0,0,0,1.64-.62,3,3,0,0,1,1.43-.4,3.22,3.22,0,0,1,1.63.4,2,2,0,0,0,1.63.62,2.19,2.19,0,0,0,1.84-.62,3,3,0,0,1,1.43-.4,3.24,3.24,0,0,1,1.64.4,2,2,0,0,0,1.63.62,3.15,3.15,0,0,0,1.84-.62,2,2,0,0,1,1.43-.4l.2-.21-.2-.2a3.41,3.41,0,0,0-1.84.41,2,2,0,0,1-1.43.4,3,3,0,0,1-1.43-.4,3.41,3.41,0,0,0-1.84-.41,3.11,3.11,0,0,0-1.63.41,3.24,3.24,0,0,1-1.64.4,3,3,0,0,1-1.43-.4,3.34,3.34,0,0,0-1.83-.41,3.13,3.13,0,0,0-1.64.41,3,3,0,0,1-1.43.4,3.22,3.22,0,0,1-1.63-.4,3.13,3.13,0,0,0-1.64-.41,3.34,3.34,0,0,0-1.83.41,3,3,0,0,1-1.43.4,3.24,3.24,0,0,1-1.64-.4,3.09,3.09,0,0,0-1.63-.41,3.41,3.41,0,0,0-1.84.41,3,3,0,0,1-1.43.4,3.19,3.19,0,0,1-1.63-.4,1.73,1.73,0,0,0-1.23-.41v.41a3.55,3.55,0,0,0,1,.4A2.21,2.21,0,0,0,162.32,752.19Zm0,2.24A3.17,3.17,0,0,0,164,754a3.13,3.13,0,0,1,1.64-.41A2.91,2.91,0,0,1,167,754a3.53,3.53,0,0,0,1.84.4,3.22,3.22,0,0,0,1.63-.4,3.11,3.11,0,0,1,1.63-.41,2.84,2.84,0,0,1,1.43.41,3.53,3.53,0,0,0,1.84.4A3.24,3.24,0,0,0,177,754a2.87,2.87,0,0,1,1.43-.41,3.11,3.11,0,0,1,1.63.41,3.22,3.22,0,0,0,1.63.4,3.5,3.5,0,0,0,1.84-.4,2.91,2.91,0,0,1,1.43-.41,3.13,3.13,0,0,1,1.64.41,3.19,3.19,0,0,0,1.63.4,3.53,3.53,0,0,0,1.84-.4,1.91,1.91,0,0,1,1.43-.41l.2-.21-.2-.41a3.15,3.15,0,0,0-1.84.62,2,2,0,0,1-1.43.41,3,3,0,0,1-1.43-.41A3.15,3.15,0,0,0,185,753a3,3,0,0,0-1.63.62,3.23,3.23,0,0,1-1.64.41,3,3,0,0,1-1.43-.41,3.08,3.08,0,0,0-1.83-.62,3,3,0,0,0-1.64.62,3,3,0,0,1-1.43.41,3.21,3.21,0,0,1-1.63-.41,3,3,0,0,0-1.64-.62,3.08,3.08,0,0,0-1.83.62,3,3,0,0,1-1.43.41,3.23,3.23,0,0,1-1.64-.41,3,3,0,0,0-1.63-.62,3.15,3.15,0,0,0-1.84.62,3,3,0,0,1-1.43.41,3.18,3.18,0,0,1-1.63-.41,1.73,1.73,0,0,0-1.23-.41v.41c.41.2.82.2,1,.41A3.53,3.53,0,0,0,162.32,754.43Zm29.21-6.12a3.15,3.15,0,0,0-1.84.61,2,2,0,0,1-1.43.41,3,3,0,0,1-1.43-.41,2.21,2.21,0,0,0-1.84-.61,2,2,0,0,0-1.63.61,3.23,3.23,0,0,1-1.64.41,3,3,0,0,1-1.43-.41,2.17,2.17,0,0,0-1.83-.61,2,2,0,0,0-1.64.61,3,3,0,0,1-1.43.41c-.41,0-.61-.21-.81-.21a36.24,36.24,0,0,0,4.69-1.84c2.45-1.42,2.66-2.24,2.66-2.24a4,4,0,0,0,2.25-2.25l.4-.41v1.43a.55.55,0,0,0-.61.62c0,.2.21.4.61.61v.41h-.4l-.21.2.21.21h.4v1.63c-.4-.21-.81-.41-.81-.82l-.21-.2v.2a1,1,0,0,0,1,1c.82,0,1.23-.41,1.23-1l-.2-.2v.2c0,.41-.41.61-.82.82v-1.63h.41l.2-.21-.2-.2h-.41V745c.41-.21.41-.41.41-.61,0-.41,0-.62-.41-.62v-1.63a2.85,2.85,0,0,1,.61-1s-.41.81.21,1.22c.81.41,2.24-1,.81-1.84a5.86,5.86,0,0,1,2-1.22c1.23-.61,2-1.23,1.84-1.63a3.25,3.25,0,0,0-.81.2l-1.84-5.52-.21-.2v-.61a2.43,2.43,0,0,1,1.64.2c.41.61,1,0,1,0l-.41-.82.61-.81c-.41.2-.81,0-1.43-.41-.2-.41-1-.21-1.43-.21v-.2c.21-.2.41-.41.41-.61a.61.61,0,1,0-1.22,0,.75.75,0,0,0,.2.61v4.29l-2.25,3.88a20.43,20.43,0,0,1-1.22-3.88,1.07,1.07,0,0,0,2,.2c.41.41.82.41,1-.2L184,732.17v-.41l-.61-.61v-1.23a2.44,2.44,0,0,1,2.25,1c1.63-1.63-.21-2.85.61-3.47a1.23,1.23,0,0,0,0-1.63l-2.86-1.64v-1c.41,0,1-.2,1.43.21a1.14,1.14,0,0,0,1.22,0l-.4-.82.61-.82c-.61.21-.82,0-1.43-.41-.41-.4-1-.2-1.43-.2v-.2c.2-.21.41-.41.41-.62,0-.4-.41-.61-.82-.61a.66.66,0,0,0-.61.61c0,.21.2.41.41.62v2.86l-.62.61H180.7c0,1.22.82,1.84.62,3.06-.21.62-.62,1.64-.62,1.64a2.33,2.33,0,0,0,2.05.81v1.23l-.21.2-2.45-1.43c0,1.43.41,3.27,2.66,3.07v7.76c-.21,0-.41.2-.62.2a8,8,0,0,1-1.84-1.84c.62-1.42,0-3.26.41-3.26a.83.83,0,0,0,.82-1l-3.88-2.25.2-.41v-.41l-.61-.61v-2a2.42,2.42,0,0,1,2.25,1c1.63-1.64-.21-2.86.61-3.47.41-.21.41-.82,0-1.64l-2.86-1.63v-1a2,2,0,0,1,1.43.2.86.86,0,0,0,1.23,0l-.62-.82.82-.81a1.27,1.27,0,0,1-1.43-.41c-.41-.41-1.22-.21-1.43-.21v-.2c.21-.2.41-.41.41-.61,0-.41-.41-.62-.82-.62a.66.66,0,0,0-.61.62c0,.2.2.41.41.61V723l-.82.61h-1.22c0,1.23.81,1.84.61,3.07-.21.61-.61,1.63-.61,1.63a2.33,2.33,0,0,0,2,.82v2l-.61.61-1.23-.82c0-.2.2-.2.41-.61l-3.88-2.24-.62-.62v-2.86a2,2,0,0,1,1.84.21,1.41,1.41,0,0,0,1.64,0l-.62-1.23.82-.82a1.65,1.65,0,0,1-1.84-.61c-.61-.61-1.43-.2-1.84-.2v-.41c.21,0,.41-.21.41-.61a.91.91,0,0,0-.81-.62.92.92,0,0,0-.62.62c0,.4.21.61.41.61v5.92l-3.88-2.24c0,2,.61,4.69,3.88,4.28v3.68l-3.88-2.25a.77.77,0,0,0,.21,1.23,4.62,4.62,0,0,1-.21,5.52,2.26,2.26,0,0,1,2,1c.82,1,1,1.63,1.84,1.83v.62l-3.06-.82h-1.43L163.34,733c.21-.21.41-.41.21-.62,0-.4-.41-.61-.82-.61a.75.75,0,0,0-.41,1,.43.43,0,0,0,.41.41,1.68,1.68,0,0,0-1.84,1.64c-.2.81.21,1.63-.2,2.45a4.26,4.26,0,0,0-.82,2.24l.41,1.64a3.94,3.94,0,0,1,.61-2s.82,1.23.41,2a1.32,1.32,0,0,0,.82-1.43c0-1-.21-1.64.4-2.25a2,2,0,0,1,1.43-.41l1,3.27a5,5,0,0,0-4.09,4.29,1.61,1.61,0,0,1-.61.2v1.23a.75.75,0,0,1,.61-.2,4.93,4.93,0,0,0,1.43,3.47,3.18,3.18,0,0,1-1.63-.41,3.28,3.28,0,0,0-1.23-.61v.61a1.52,1.52,0,0,1,1,.41,3.51,3.51,0,0,0,1.84.41h.61a4.71,4.71,0,0,0,2.86.81H166a26.17,26.17,0,0,0,8-1.22v.2a3,3,0,0,0,1.43.21,3.23,3.23,0,0,0,1.64-.41,2.87,2.87,0,0,1,1.43-.41,3.11,3.11,0,0,1,1.63.41,3.21,3.21,0,0,0,1.63.41,3.48,3.48,0,0,0,1.84-.41,2.91,2.91,0,0,1,1.43-.41,3.13,3.13,0,0,1,1.64.41,3.18,3.18,0,0,0,1.63.41,3.51,3.51,0,0,0,1.84-.41,1.91,1.91,0,0,1,1.43-.41l.2-.41ZM185,744.43c0,.2-.2.2-.41.2a.2.2,0,0,1-.2-.2.7.7,0,0,1,.2-.41A.43.43,0,0,1,185,744.43ZM186.83,734v5.1l.61-.4v-5.93l1.84,5.11a13.36,13.36,0,0,0-3.27,1.84h-.2a15.17,15.17,0,0,1-1-1.84Zm-1.22,5.92-.21.21a9.2,9.2,0,0,0-2,.4h.2l1-2.24A11.57,11.57,0,0,0,185.61,739.93Zm-2.25-7.15v0Zm0,1.84a19.54,19.54,0,0,0,1,3.27l-1,2.25Zm0,5.92h0l-.41.21Zm-3.27-.81h.41c0,.2.2.41.41.61-.41,0-.82.2-1.23.2v-.4Zm-.41,1.22a7.67,7.67,0,0,0,1.43-.41c.21.21.61.41.82.62a7.39,7.39,0,0,0-1.84.81C179.89,741.57,179.68,741.36,179.68,741Zm-2.45.82a3.32,3.32,0,0,0,1.84-.2l.2-.21c.21.21.41.41.41.61v.21c-.61.2-1.22.61-1.84.82-.2.2-.4.2-.61.4Zm-13.89,5.72c-.41,0-.61-.21-.61-.41a.61.61,0,1,1,1.22,0C164,747.28,163.75,747.49,163.34,747.49Zm.21-4.09a.41.41,0,1,1,.4-.4A.43.43,0,0,1,163.55,743.4Zm3.88-1c.2,0,.41.21.41.62a.44.44,0,0,1-.41.4.43.43,0,0,1-.41-.4C167,742.59,167.22,742.38,167.43,742.38Zm.2,5.72a.93.93,0,0,1-.61-.61.65.65,0,0,1,.61-.61.54.54,0,0,1,.61.61A.65.65,0,0,1,167.63,748.1Zm7.35-3.88V744a18,18,0,0,1-2-3.27l.41-.21a21.57,21.57,0,0,0,3.06,3.07C176,743.81,175.39,744,175,744.22Zm1.64-2.65v1.83a12.92,12.92,0,0,1-2.86-3.06,2.27,2.27,0,0,0,.2-1A3.74,3.74,0,0,0,176.62,741.57Zm-5.93-11.85c.41,2,1.84,1.84,2.66,1.43a.64.64,0,0,0,0,.82,3.19,3.19,0,0,1,0,3.06l-2.66-1.43Zm2.66,14.91c-.2-1.84-1.84-3.27-2.66-3.27v-.61a3.53,3.53,0,0,0,1.84.2,31.89,31.89,0,0,0,2.25,3.27A4.58,4.58,0,0,1,173.35,744.63Zm80.48-118.06c-2.25.21-3.27,2.45-2.25,4.5a3.18,3.18,0,0,1,.2-1.84,1.52,1.52,0,0,1,1.84-.82,1.52,1.52,0,0,0-.2,1.84,1.2,1.2,0,0,0,1.22.41s-.61-.82,0-1.23c.62-.61,1.43.21,1.64,1.64a8.17,8.17,0,0,1,.2,3.06,5.76,5.76,0,0,0,1.23-3.47C257.71,627.59,255.66,626.57,253.83,626.57Zm5.31,149.92s.4,1-.41,1.23-.41-1-.82-1.84c-.41-1.23-1.63-2-3.47-1.43-.82.41-2.25-.41-3.27-1.23,0,0,2.45-2.24,2-6.94-.41-4.49-5.1-4.49-3.88-8.58a3.16,3.16,0,0,0-2,4.29s-2,.82-.41,3.27c0,0,.21-1.43,1.43-1.63s3.27,1.42,2.25,4.08c0,0-.62-1.23-1.64-1.23,0,0,2.25,3.07.41,5.72a.9.9,0,0,0,.61.21,9.92,9.92,0,0,0-3.47-.21,9.56,9.56,0,0,0-4.7,2,8.82,8.82,0,0,1-.81-5.52c1.63,3.07,3.88.41,3.88.41a2.37,2.37,0,0,1-2.25-1.84,1.83,1.83,0,0,0,2-.41s-2-1.43-1-7.55a35.22,35.22,0,0,1,3.88-9.81,22.63,22.63,0,0,1,.62-6.13,26.44,26.44,0,0,0-.62,5.93,4,4,0,0,0,2.86,3.88c-2-1.84-.81-4.7-.81-4.7a1.26,1.26,0,0,0,1.63.82,5.13,5.13,0,0,1-.41-3.27,3,3,0,0,0,1.64.82c-1-5.31,3.67-9.19,2.86-21a30,30,0,0,0-.82-6.54c5.31-6.74,4.9-19.81-3.07-19-5.51.61-5.51,4.69-6.53,7.35-1.64-.82-4.7-.82-7.35.61l-.21-.41a12.63,12.63,0,0,0,4.29-2.65c2.45-2,4.7-5.31,5.11-12.87.41-5.72.81-10,1.84-11.85a2.9,2.9,0,0,1,2.85-1.63,1.37,1.37,0,0,0-2-.82,1.46,1.46,0,0,1,1.64-1.63A1.28,1.28,0,0,1,252.4,678a1.85,1.85,0,0,0,.4-2.86c-.81-1-2.65-.61-2.65-.61,1.84-3.68,4.29-2.45,4.29-2.45a1.94,1.94,0,0,0-.41-1.43s.61,0,.82,1c.41,1-.82,1.23-.82,1.23,1,.61,2-.21,1.63-1.43a1.75,1.75,0,0,1,1.23,1.63,2.17,2.17,0,0,1-1.23,2.25,2.2,2.2,0,0,0,2.46-2.25,1.47,1.47,0,0,0,1,1c.61-3.47-1.64-4.29-3.07-4.29a1.35,1.35,0,0,0,.62-1.43,4.84,4.84,0,0,1-2.86.82c-1.64-.2-1.84.82-1.84.82a1.56,1.56,0,0,1,1,.2.93.93,0,0,0-1,0,3.69,3.69,0,0,0-2.66,2,3.65,3.65,0,0,0,0-2.65c-2.86,1.84-2.24,6.33-2.65,10.21a62,62,0,0,1-.82,7s-.61-2.25-1.84-6.74a6.7,6.7,0,0,1,2.66-.21v-9.6s10.21-4.7,10.21-15.52a16.39,16.39,0,0,0-6.95-13.89c.21,0,.62-.2.82-.2,2.66-.62,3.68,1,3.68,1,.41-3.27-3.27-2.45-3.27-2.45a10.92,10.92,0,0,0,4.09-1.64,3.35,3.35,0,0,0,1.22-3.47,2.83,2.83,0,0,1-2,1c.61-1.43-.82-2.66-.82-2.66a2.76,2.76,0,0,1-.61,1.23,1.63,1.63,0,0,0-1-1.84c.2,2.45-1.64,4.09-5.72,7a19.15,19.15,0,0,0-2-.82,1.58,1.58,0,0,0,0-2.25,1.87,1.87,0,0,0-2.25.41l-.61,1.23c-.21,0-.41-.21-.62-.21a4.54,4.54,0,0,1,.62-1c.4-.61-.62-1.84-1.43-.61-.21.41-.62,1-.82,1.43h-2.45c-10,0-16.55,3.88-19.81,7.35l.2-.41c-2.25-2.24-12.87-4.08-25.53-4.08-12.87,0-23.49,1.84-25.53,4.08v.41c-3.27-3.47-9.81-7.35-19.82-7.35h-2.45c-.2-.41-.61-1-.81-1.43-.82-1.23-1.84,0-1.43.61.2.21.41.61.81,1-.2,0-.4.21-.61.21a4.39,4.39,0,0,1-.82-1.23,1.62,1.62,0,0,0-2-.41,1.41,1.41,0,0,0-.2,2.25c-.62.2-1.43.61-2,.82-3.88-2.86-5.71-4.5-5.71-7a1.89,1.89,0,0,0-1,1.84,2.89,2.89,0,0,1-.61-1.23,2.23,2.23,0,0,0-.61,2.66,2.56,2.56,0,0,1-2-1,3,3,0,0,0,1,3.47,12.34,12.34,0,0,0,4.08,1.64s-3.47-.82-3.27,2.45a3.49,3.49,0,0,1,3.68-1,9.18,9.18,0,0,0,1,.2A16.07,16.07,0,0,0,126,654.76c0,10.82,10.22,15.52,10.22,15.52v9.6a6.69,6.69,0,0,1,2.65.21c-1.22,4.49-1.84,6.74-1.84,6.74a60.68,60.68,0,0,1-.81-7c-.21-3.88.2-8.37-2.66-10.21a5.32,5.32,0,0,0,0,2.65,3.27,3.27,0,0,0-2.65-2,1,1,0,0,0-1,0,1.9,1.9,0,0,1,1-.2s-.21-1-1.84-.82a4.8,4.8,0,0,1-2.86-.82,1.34,1.34,0,0,0,.61,1.43c-1.22,0-3.68.82-3.06,4.29a1.48,1.48,0,0,0,1-1,2.29,2.29,0,0,0,2.45,2.25,1.89,1.89,0,0,1-1-2.25c.2-1.43,1-1.63,1-1.63-.41,1.22.61,2,1.84,1.43,0,0-1.23-.21-1-1.23s.81-1,.81-1H129a2.21,2.21,0,0,0-.62,1.43s2.46-1.23,4.29,2.45c0,0-1.83-.41-2.65.61a1.85,1.85,0,0,0,.41,2.86,1.39,1.39,0,0,1,1.43-1.63,1.45,1.45,0,0,1,1.63,1.63,1.37,1.37,0,0,0-2,.82,2.92,2.92,0,0,1,2.86,1.63c1,1.84,1.43,6.13,1.84,11.85.4,7.56,2.86,10.83,5.1,12.87a11.67,11.67,0,0,0,4.5,2.65l-.41.41c-2.66-1.43-5.72-1.43-7.36-.61-1-2.66-1-6.74-6.53-7.35-8-.82-8.38,12.25-2.86,19a29.25,29.25,0,0,0-1,6.54c-.82,11.85,4.08,15.73,2.86,21a2.53,2.53,0,0,0,1.63-.82,5.13,5.13,0,0,1-.41,3.27,1.27,1.27,0,0,0,1.64-.82s1.22,2.86-.82,4.7a4,4,0,0,0,2.86-3.88c0-2.66-.41-5.31-.41-5.93a27.64,27.64,0,0,1,.41,6.13,35.22,35.22,0,0,1,3.88,9.81c1,6.12-1,7.55-1,7.55a2,2,0,0,0,2,.41,2.37,2.37,0,0,1-2.25,1.84s2.46,2.66,4.09-.41a9,9,0,0,1-1,5.52,9.56,9.56,0,0,0-4.7-2,8.82,8.82,0,0,0-3.27.21,2,2,0,0,0,.62-.21c-2-2.65.2-5.72.2-5.72-1,0-1.63,1.23-1.63,1.23-.82-2.66,1-4.29,2.45-4.08,1,.2,1.22,1.63,1.22,1.63,1.84-2.45-.41-3.27-.41-3.27a3.16,3.16,0,0,0-2-4.29c1.23,4.09-3.47,4.09-3.88,8.58-.41,4.7,2,6.94,2,6.94-1,.82-2.24,1.64-3.27,1.23a2.57,2.57,0,0,0-3.47,1.43c-.41.82,0,2-.81,1.84-.62-.21-.41-1.23-.41-1.23s-1.64.41-1,2.66a2.71,2.71,0,0,0,3.06,2.25c1.43,4.08,5.92,3.47,6.74,2.45a3.71,3.71,0,0,0,.82-2.66c-.41,1-3.48,1.84-4.5-.41-1-2.45.21-3.67.21-3.67a2.27,2.27,0,0,0,1.43,1.83c-.41-3.67,1.63-3.67,1.63-3.67-.61,3.27,1.84,3.67,1.84,3.67a2.19,2.19,0,0,1,0-2.45l.2-.2c.41.41,4.09,3.88,8,1a19.35,19.35,0,0,1,3.06,4.29c4.09,7.15,9.81,7.76,9.81,7.76,9.19,3.27,9.8-2.65,9.19-4.7-.82-2.24-3.88-1.84-4.09.21s1.43,2,1.43,2c-4.69,2.86-6.94-4.7-5.51-5.11,1.22-.4.61,1.23.61,1.23a1.24,1.24,0,0,0,1.43-1.84c-.41-1.22-2-1-2-1a2.41,2.41,0,0,1,2.65-2.45c1.43.41.62,1.84.62,1.84,1.84.61,2.86-1.64,1.22-3.07-1.84-1.43-4.49,0-4.49,0a18.58,18.58,0,0,1,7.35-5.31c4.09-1.63,13.48-2,16.34,2.45s-3.88,7.15-3.88,7.15c.41,0,.61-.2.82-.2a2.09,2.09,0,0,1-.82.2v1.43a3.67,3.67,0,0,1-4.49-3.47,1.44,1.44,0,0,0-1.43.61s-1-3.06,2-3.06a3.15,3.15,0,0,0-.2,2.25,2.78,2.78,0,0,0,3.88,1c2-1,2.65-4.91-.41-7.15-3.47-2.86-7.15.2-7.15.2-2.45-2.65-4.49.21-4.49.21,1.43-.62,2,1,2,1a1.52,1.52,0,0,0-.82,2c2-1,.41,3.68,2.25,6.13a7.06,7.06,0,0,0,8.78,2v4.29c-4.49-.82-9.19,1-11.44,6.94-2,4.7-6.12,6.54-8.78,3.68a1.87,1.87,0,0,0-.41,1.63s-2.25-.81-1.22-2.65a2.18,2.18,0,0,0-2.25,2.45s-2.66.2-1.63,3.06a1.94,1.94,0,0,1,2.65-.81,1.14,1.14,0,0,0-.41,1.22,3,3,0,0,1,2,0,2.33,2.33,0,0,0,2.05,0,10.62,10.62,0,0,1-9.19-1.22,2.59,2.59,0,0,1-.62-2.45s-1-.41-1.43.4a1.44,1.44,0,0,1-.41-2s-1.22-.2-1.42.82c0,0-1-4.49,2.24-4.49,2.86,0,2.25,2.86,1,2.86a1.36,1.36,0,0,0,2-.21,2,2,0,0,1-.62,2,2.33,2.33,0,0,0,2.66-2c.41-2.45-1.23-5.92-5.72-5.51-4.9.61-4.9,6.74-2.66,9.39,0,0-1-.2-1,.82,0,0,1.43,0,3.27,2,3.06,3.27,10,4.29,13.89,1.23a2.86,2.86,0,0,0,.82,3.26,2.43,2.43,0,0,1,1.22-2.24,2.63,2.63,0,0,0,1.23,1.43,19.48,19.48,0,0,1,1.22-4.7,48.53,48.53,0,0,1,3.07-4.08,10.46,10.46,0,0,1,.41,4.49,2.06,2.06,0,0,0,1.83-2s2.25,3.67,5.31,1.63c0,0-3.67-.41-3.06-3.68a1.49,1.49,0,0,0,2,.21,3.38,3.38,0,0,1-1.84-3.07c0-3.06,1.84-5.1,5.32-5.1a7.77,7.77,0,0,1,5.92,2.65c1,1,2.45,4.5.61,6.33-1.63,1.84-3.67-.2-2.45-1.42a1.26,1.26,0,0,0,1,1.22,1.79,1.79,0,0,0,1.43-2.45,2.37,2.37,0,0,0-4.08-.2,3.66,3.66,0,0,0,0,4.08h0s-2.05,4.49,1.83,6.54a4.74,4.74,0,0,0,6.54-2.45l1,.61s-.81,6.74,3.68,9.39c4.49-2.65,3.47-9.39,3.47-9.39l1-.61a4.8,4.8,0,0,0,6.54,2.45c3.88-2.05,1.84-6.54,1.84-6.54h0a3.67,3.67,0,0,0,0-4.08,2.19,2.19,0,0,0-3.88.2,1.78,1.78,0,0,0,1.43,2.45,1.26,1.26,0,0,0,1-1.22c1,1.22-1,3.26-2.66,1.42s-.41-5.31.61-6.33a7.81,7.81,0,0,1,5.93-2.65c3.67,0,5.31,2,5.31,5.1a3.38,3.38,0,0,1-1.84,3.07,1.8,1.8,0,0,0,2.25-.21c.41,3.27-3.27,3.68-3.27,3.68,3.06,2,5.51-1.63,5.51-1.63a2.06,2.06,0,0,0,1.84,2,7.81,7.81,0,0,1,.41-4.49s1.84,2.45,2.86,4.08a12.73,12.73,0,0,1,1.23,4.7,2.58,2.58,0,0,0,1.22-1.43,3,3,0,0,1,1.43,2.24,3,3,0,0,0,.61-3.26c4.09,3.06,11,2,13.89-1.23,1.84-2,3.47-2,3.47-2a1,1,0,0,0-1.22-.82c2.25-2.65,2.25-8.78-2.66-9.39-4.29-.41-6.12,3.06-5.51,5.51.41,2.45,2.45,2,2.45,2a2,2,0,0,1-.61-2,1.35,1.35,0,0,0,2,.21c-1,0-1.63-2.86,1-2.86,3.47,0,2.45,4.49,2.45,4.49a1.52,1.52,0,0,0-1.63-.82,1.43,1.43,0,0,1-.41,2c-.41-.81-1.43-.4-1.43-.4a2.15,2.15,0,0,1-.61,2.45,10.19,10.19,0,0,1-9,1.22,1.93,1.93,0,0,0,1.84,0,3,3,0,0,1,2,0,.89.89,0,0,0-.41-1.22,2,2,0,0,1,2.66.81c1-2.86-1.64-3.06-1.64-3.06a2.17,2.17,0,0,0-2.24-2.45c1,1.84-1.23,2.65-1.23,2.65a1.84,1.84,0,0,0-.41-1.63c-2.45,2.86-6.74,1-8.58-3.68-2.45-5.92-6.94-7.76-11.64-6.94v-4.29a7.06,7.06,0,0,0,8.78-2c2-2.45.21-7.15,2.46-6.13a1.72,1.72,0,0,0-1-2s.82-1.64,2.05-1c0,0-2.05-2.86-4.5-.21,0,0-3.67-3.06-7.15-.2-3.06,2.24-2.45,6.13-.2,7.15a2.56,2.56,0,0,0,3.68-1,3.13,3.13,0,0,0-.21-2.25c3.27,0,2.25,3.06,2.25,3.06a1.73,1.73,0,0,0-1.63-.61s0,4.08-4.5,3.47v-1.43a3.36,3.36,0,0,1-.82-.2c.41,0,.62.2.82.2,0,0-6.53-2.65-3.88-7.15,2.86-4.49,12.26-4.08,16.34-2.45a21.67,21.67,0,0,1,7.56,5.31s-2.86-1.43-4.49,0c-1.84,1.43-.62,3.68,1,3.07,0,0-.82-1.43.61-1.84a2.41,2.41,0,0,1,2.65,2.45s-1.63-.2-2,1a1.32,1.32,0,0,0,1.43,1.84s-.61-1.63.82-1.23-1,8-5.52,5.11c0,0,1.43,0,1.23-2,0-2-3.27-2.45-4.09-.21-.61,2.05,0,8,9.2,4.7,0,0,5.71-.61,9.8-7.76a14.65,14.65,0,0,1,3.27-4.29c3.67,2.86,7.35-.61,7.76-1l.2.2a2.19,2.19,0,0,1,0,2.45s2.45-.4,1.84-3.67c0,0,2.25,0,1.64,3.67a2.28,2.28,0,0,0,1.43-1.83s1.43,1.22.2,3.67c-1,2.25-4.09,1.43-4.49.41a5.39,5.39,0,0,0,.81,2.66c.82,1,5.31,1.63,6.74-2.45a2.64,2.64,0,0,0,3.07-2.25C260.77,776.9,259.14,776.49,259.14,776.49Zm-123.37-1.43a4.64,4.64,0,0,1,3.88.62A4.1,4.1,0,0,1,135.77,775.06Zm109.68-38c2.86,2.86,5.72-1,5.72-1-1.63,5.31-7.76,5.72-8,5.92v-.81c.41-6.74,3.89-13.48,8.17-18.39a27.24,27.24,0,0,1-.4,6.54c-.41,3.27-1.43,5.52-2.86,5.11-1.23-.41-.82-2-.82-2C244.84,732.17,243.82,735.44,245.45,737.07Zm6.13-30c1.63,0,1.22,3.06,0,5.51a33.45,33.45,0,0,0-2.45-2.86C249.54,708.27,250.15,707.05,251.58,707.05Zm-6.74.61a4.11,4.11,0,0,1-.82,1.63A3.83,3.83,0,0,0,244.84,707.66Zm-1,1.84a4.8,4.8,0,0,1-1,.61,5.53,5.53,0,0,1-3.27-.41A6.17,6.17,0,0,1,243.82,709.5Zm-3.27,7.35a2.76,2.76,0,0,0-2.45,1c-1.84,1.84-.61,4.7,1.63,4.09,1.23-.41,1-2,1-2s1.43,2.45-.81,3.26c-3.07,1.43-5.93-2-5.11-6.94a5.82,5.82,0,0,1,.41-1.84A9.14,9.14,0,0,0,240.55,716.85ZM242,694.38a16.28,16.28,0,0,1-5.52,10.83,1.59,1.59,0,0,0-.61-2.66v-10c0-2.25-.2-6.13,3.27-9.81a4.53,4.53,0,0,1,1.84,1.84c-1.23-.2-1.84,1.22-1.84,1.22C240.55,685.6,242.39,687.64,242,694.38Zm-.21-48.2a3.5,3.5,0,0,0,.82-1,11.94,11.94,0,0,1,6.13,7.15,7.15,7.15,0,0,1-1.63,6.74c-1.23,1.22-4.7,1-4.7,1,.41,2.45,3.47,2.25,3.47,2.25s-1.63,2-5.72,2.24a37.84,37.84,0,0,1-.82-5.72v-1.63h.62c-.82,1,.41,2.45.41,2.45a2.16,2.16,0,0,1,1.42-2,5.08,5.08,0,0,0,2.86-5.93,5.7,5.7,0,0,0-3.67-4.28A4.14,4.14,0,0,0,241.77,646.18Zm-1.63,3.06c1,.62,1.84,1.23,1.84,2.25.2,2.66-2.25,1.23-2.25,1.23a1.58,1.58,0,0,0,1,2,2.19,2.19,0,0,1-1.43.41A20.84,20.84,0,0,1,240.14,649.24Zm-2.25-5.31h.41c-.2,1-.41,2.05-.61,2.86h-.41C237.49,645.77,237.69,645,237.89,643.93Zm-.81,4.91h.2a58.41,58.41,0,0,0,.61,15.72C237.08,659.46,236.46,653.94,237.08,648.84Zm-.21,15.31c-3.27-.81-5.31-3.47-4.9-5.71.2-1.64,1.23-1.43,1.23-1.43s.2-1.43-1.23-1.23c-1.63,0-2.25,2.66-2.25,2.66-.4-3.68,1.43-6.13,2.66-5.93,1.43.21.61,1.84.61,1.84,1.64.2,2.66-.82,2.66-1.84V655C235.85,658.23,236.46,661.5,236.87,664.15Zm-5.1-13.68a7.21,7.21,0,0,1,4.08-1.63,20.15,20.15,0,0,0-.2,3.47,2.5,2.5,0,0,0-.82-1.84C233.6,649.65,231.77,650.47,231.77,650.47Zm-17.37-6.13a.74.74,0,0,1,.41,1c0,.41-.41.41-.81.41a1.12,1.12,0,0,1-.62-1A1.61,1.61,0,0,1,214.4,644.34Zm-.61,14.3c-2.65-.41-4.08-4.29-5.31-7.15-1.22-3.47-4.7-5.51-9.8-4.9a5.65,5.65,0,0,0-3.88,2h-6.74a5.12,5.12,0,0,0-3.88-2c-5.11-.61-8.38,1.43-9.81,4.9-1,2.86-2.86,6.74-5.31,7.15a17.75,17.75,0,0,0-.82-10.62c2.66-1.23,9-2.86,23.29-2.86,14.09,0,20.42,1.63,23.08,2.86A19.57,19.57,0,0,0,213.79,658.64Zm-27,2.25a28,28,0,0,1,2.66-4.09h1.83s-.61,1.84-1.22,3.88c-.61,1.84-1.64,3.07-2.86,2.86C186.22,663.34,186.42,662.32,186.83,660.89Zm-4.08,1.22c-1.43-.41-2.05-2,0-4.29s5.71-1,5.71-1C186,660.68,184,662.52,182.75,662.11Zm7.35-10.62a1.43,1.43,0,1,1,1.43,1.43A1.39,1.39,0,0,1,190.1,651.49Zm1.43,8.17s1.84,4.09,0,4.09S191.53,659.66,191.53,659.66Zm.2-2.86h1.84a18.84,18.84,0,0,1,2.45,4.09c.61,1.43.82,2.45-.41,2.65s-2-1-2.65-2.86C192.35,658.64,191.73,656.8,191.73,656.8Zm2.86,0s3.68-1.22,5.72,1,1.23,3.88,0,4.29C198.88,662.52,196.84,660.68,194.59,656.8Zm12.67-14.3a1.41,1.41,0,0,1,1.43,1c-.21.62-.82.82-1.84.62a1.4,1.4,0,0,1-1.43-1C205.62,642.5,206.44,642.3,207.26,642.5Zm-8-.81c.61.2,1,.4,1,.81s-.41.62-1.22.62a.94.94,0,0,1-1-.82C198.06,642.09,198.68,641.69,199.29,641.69Zm-7.76-.82c1,0,1.84.61,1.84,1.22s-.82,1-1.84,1-2-.41-2-1S190.51,640.87,191.53,640.87Zm-7.76.82c.61,0,1,.4,1,.61a.94.94,0,0,1-1,.82c-.62,0-1.23-.21-1.23-.62S183,641.89,183.77,641.69Zm-8.17.81c1-.2,1.63,0,1.84.62a1.41,1.41,0,0,1-1.43,1c-.82.2-1.64,0-1.84-.62A1.4,1.4,0,0,1,175.6,642.5Zm-7.15,1.84a1.57,1.57,0,0,1,1,.41c.2.41-.2.82-.41,1-.41,0-.82,0-1-.41A.75.75,0,0,1,168.45,644.34ZM147.21,655v-2.45a2.23,2.23,0,0,0,2.65,1.84s-.82-1.63.61-1.84c1.23-.2,3.07,2.25,2.66,5.93,0,0-.61-2.66-2.25-2.66-1.43-.2-1.22,1.23-1.22,1.23s1-.21,1.43,1.43c.2,2.24-1.64,4.9-5.11,5.92A66.63,66.63,0,0,0,147.21,655Zm-.21-6.12a7.24,7.24,0,0,1,4.09,1.63s-1.84-.82-3.07,0a3.61,3.61,0,0,0-.81,1.84A19.2,19.2,0,0,0,147,648.84Zm-2,15.72h0a58,58,0,0,0,.61-15.72h.21A51,51,0,0,1,145,664.56Zm0-20.63c.2,1,.41,1.84.61,2.86h-.2a21.89,21.89,0,0,0-.82-2.86Zm-2.25,5.31a31.93,31.93,0,0,1,1,5.93,2.44,2.44,0,0,1-1.63-.41,1.58,1.58,0,0,0,1-2s-2.25,1.43-2.25-1.23C140.87,650.47,141.69,649.86,142.71,649.24ZM137,662.32s3.07.2,3.68-2.25c0,0-3.68.2-4.9-1a7.76,7.76,0,0,1-1.64-6.74,12,12,0,0,1,6.13-7.15c.21.41.61.61.82,1s.61.82.82,1.23a5.16,5.16,0,0,0-3.48,4.28,5.09,5.09,0,0,0,2.86,5.93c1.23.41,1.23,2,1.23,2s1.22-1.43.41-2.45h.81c0,.61-.2,1-.2,1.63a37.84,37.84,0,0,1-.82,5.72C138.63,664.36,137,662.32,137,662.32Zm3.88,32.06c-.4-6.74,1.43-8.78,2.86-8.58,0,0-.61-1.42-1.83-1.22a4.55,4.55,0,0,1,1.83-1.84,13,13,0,0,1,3.48,9.81v10a1.57,1.57,0,0,0-.82,2.66A16.28,16.28,0,0,1,140.87,694.38Zm6.74,20a5.82,5.82,0,0,1,.41,1.84c.82,4.9-2,8.37-5.1,6.94-2-.81-.62-3.26-.62-3.26s-.4,1.63.82,2c2.25.61,3.47-2.25,1.63-4.09a2.6,2.6,0,0,0-2.24-1A9.17,9.17,0,0,0,147.61,714.4Zm-4.08-4.7a5.76,5.76,0,0,1-3.27.41,3.28,3.28,0,0,1-1.22-.61A6.74,6.74,0,0,1,143.53,709.7Zm-4.7-.41a4.11,4.11,0,0,1-.82-1.63A4,4,0,0,0,138.83,709.29Zm-7.56-2.24c1.43,0,2,1.22,2.46,2.65a19.66,19.66,0,0,0-2.25,2.86C130.25,710.11,129.64,707.05,131.27,707.05Zm.41,29s2.86,3.88,5.72,1c1.64-1.63.61-4.9-1.84-4.7,0,0,.41,1.64-.81,2-1.43.41-2.45-1.84-2.86-5.11a29.88,29.88,0,0,1-.21-6.54c4.09,4.91,7.56,11.65,8,18.39V742C139.65,741.77,133.32,741.36,131.68,736.05Zm16.14,41.06c0,4.29,1.22,7.14,2.86,9l-.41-.41c-1.43-1-3.27-4.28-4.49-6.33a14.59,14.59,0,0,0-2.66-3.27c2.25-2.86,1.43-7.76,1.43-7.76s3.06,2.25,4.49-.61c0,0-2.45-.41-3.26-2a2.61,2.61,0,0,0,2.24-.82s-3.47-.82-5.72-8.58a31.13,31.13,0,0,0-7.55-13.07,6.39,6.39,0,0,0,5.1,1.63v-.4c.62,5.31,2.05,13.07,5.31,17.56,2.66,3.68,7.56,2.66,10.42,4.29C155.58,766.28,147.82,769.55,147.82,777.11ZM144.35,735c.81-.61,2.24-.2,2.86,1.63.4,1.84-.41,4.5-2.46,4.7l.41,3.07c-.61-3.27-.81-6.34-1.43-8.79-.2-.61-.4-1.43-.61-2a1,1,0,0,1,.82,0A1.06,1.06,0,0,0,144.35,735Zm75,32.07-17.36,1h-2a1.52,1.52,0,0,1,.41,1c.61,2.45,1.64,2.45,1.64,2.45a3.66,3.66,0,0,1-.82,1.23l-.21-.21a1.55,1.55,0,0,1-1-.81,2.74,2.74,0,0,0-.81-2h-.21V770a16.44,16.44,0,0,1,.61,1.84,1.31,1.31,0,0,0,1.23,1.22,4.33,4.33,0,0,1-1,.61v-.2a2.08,2.08,0,0,1-.82-1.43,5,5,0,0,0-.82-1.84h-.4v.21a3.2,3.2,0,0,1,.61,1.63,3.66,3.66,0,0,0,1,1.63,1.2,1.2,0,0,1-.82.21h-.2a1.71,1.71,0,0,1-.61-1.43,3.4,3.4,0,0,0-.62-1.84h-.41v.2a5.18,5.18,0,0,1,.62,1.84,1.25,1.25,0,0,0,.61,1.23h-1c-1.23-.21-.61-2.45-1-3.27-2.45,4.49-1.64,10.62,3.67,13.07v1.43a15.6,15.6,0,0,0-8,12.46,16.26,16.26,0,0,0-8-12.46v-1.43c5.11-2.45,5.93-8.58,3.68-13.07-.61.82.2,3.06-1.23,3.27h-.81a3.44,3.44,0,0,0,.61-1.23,3.54,3.54,0,0,1,.41-1.84v-.2h-.41a8.07,8.07,0,0,0-.61,1.84,1.7,1.7,0,0,1-.62,1.43,1.51,1.51,0,0,1-1-.21,3.57,3.57,0,0,0,1-1.63c.21-.82.62-1.63.82-1.63l-.2-.21H185a5.12,5.12,0,0,0-.81,1.84,3,3,0,0,1-1,1.43v.2c-.4-.2-.61-.41-1-.61a1.31,1.31,0,0,0,1.23-1.22,8.13,8.13,0,0,1,.82-1.84l-.21-.21h-.2a7.29,7.29,0,0,0-.82,2c0,.61-1,.81-1,.81v.21a2.89,2.89,0,0,1-1-1.23s1,0,1.63-2.45c.21-.41.21-.82.41-1h-1.84l-17.36-1a16.16,16.16,0,0,1-11.44-6.33,13.69,13.69,0,0,1-1.22-2.46c-3.68-1.63-5.11-8-5.93-13.88a6.09,6.09,0,0,0,4.29-3.27v-9.81a2.81,2.81,0,0,1,0-2.24v-.82a2.55,2.55,0,0,0-2.86.41c-1.22.81-.41,2.86-.41,2.86-1.22-1.23-3.06-.82-3.88-.62-2.45-7.14-6.33-13.07-9.19-15.93a19.08,19.08,0,0,1,1.43-2.86V712c.61,2.25,1.84,4.49,5.52,4.9h2.24a3.63,3.63,0,0,0-3.26,3.07c-.82,3.67,1.43,6.53,4.69,6.74a6.83,6.83,0,0,0,5.72-3.07V681.31a9.26,9.26,0,0,0-1.63-2.25,4.22,4.22,0,0,0,1.63,0v-.61a2.22,2.22,0,0,1-1.84.41,17.88,17.88,0,0,0-2-1.84,2.84,2.84,0,0,1,3.47.41,2.28,2.28,0,0,0,.41-.61v-1.43c0-.21-.2-.41-.41-.82l.41.41v-2c-2-.62-4.7.2-6.53,2.86a.75.75,0,0,0-.62-.21c.41-1.84,1-3.67,1.43-5.72h.21c.2.82.61-.2,1.22-2.65a15.86,15.86,0,0,0,4.29-.82v-2.25h3.88A11,11,0,0,0,157,657c-.2-2.86.82-3.27,2.25-2.66a1.81,1.81,0,0,0-1.84-2.25s0-1.22,1.63-1a2.19,2.19,0,0,0-3.27-.82,5.39,5.39,0,0,0-3.26-2c-1.23-.2-1-1.84-1-1.84s-1.23.21-1,1.23a10.17,10.17,0,0,0-3.67-.61c-.21-1.23-.41-2.25-.62-3.07,8.17,0,13.69,3.48,15.94,6.74a10.58,10.58,0,0,1,1.43,7,11.82,11.82,0,0,1-1,1.22v5.31h11.24c2.86-2.45,4.49-6.74,4.9-8.78.41-2.65,4.29-4.9,7-1l-.21.61c-.82,0-5.11,1-5.51,4.9-.62,4.29,3.67,4.09,5.1,3.07-.2,2,3.68,2.45,4.9.61a1.56,1.56,0,0,0,1.64,1.43,1.39,1.39,0,0,0,1.43-1.43c1.22,1.84,5.1,1.43,5.1-.61,1.23,1,5.52,1.22,4.91-3.07-.41-3.88-4.7-4.9-5.52-4.9l-.2-.61c2.65-3.88,6.53-1.63,6.94,1,.41,2,2,6.33,4.9,8.78h11.44v-5.31a5.43,5.43,0,0,1-1.22-1.22,11.17,11.17,0,0,1,1.63-7c2-3.26,7.56-6.74,15.73-6.74-.21.82-.41,1.84-.61,3.07a10.2,10.2,0,0,0-3.68.61c.41-1-.82-1.23-.82-1.23s0,1.64-1.22,1.84a5.41,5.41,0,0,0-3.27,2c-1.84-1.42-3.27.82-3.27.82,1.63-.2,1.63,1,1.63,1-2.24,0-1.63,2.25-1.63,2.25,1.23-.61,2.25-.2,2.25,2.66a10.8,10.8,0,0,0,3.47,7.14h3.88v2.25a15.86,15.86,0,0,0,4.29.82c.61,2.45,1.23,3.47,1.23,2.65h.2c.41,2,1,3.88,1.43,5.72h-.41c-2-2.45-4.7-3.27-6.74-2.65v2l.41-.41c-.21.41-.41.61-.41.82v1.43a2.28,2.28,0,0,0,.41.61,2.84,2.84,0,0,1,3.47-.41,17.88,17.88,0,0,0-2,1.84,3.35,3.35,0,0,1-1.84-.41v.61a5.27,5.27,0,0,0,1.84,0,9.79,9.79,0,0,0-1.84,2.25v42.28a6.83,6.83,0,0,0,5.72,3.07c3.27-.21,5.51-3.07,4.9-6.74a3.65,3.65,0,0,0-3.27-3.07h2.05c3.67-.41,4.9-2.65,5.72-4.9l-.21.2a19.08,19.08,0,0,1,1.43,2.86c-2.86,2.86-6.74,8.79-9.19,15.93-.82-.2-2.66-.61-3.88.62,0,0,.82-2-.41-2.86a2.54,2.54,0,0,0-2.86-.41v.82a1.81,1.81,0,0,1,0,2.24v9.81a7,7,0,0,0,4.29,3.27c-.82,5.92-2,12.25-5.92,13.88a13.65,13.65,0,0,1-1.23,2.46A16.21,16.21,0,0,1,219.31,767.1Zm16.54-30.44c.41-1.83,2-2.24,2.66-1.63a1.07,1.07,0,0,0,.41-1.43,1,1,0,0,1,.81,0c-.2.61-.41,1.43-.61,2-.41,2.45-.82,5.52-1.43,8.79l.41-3.07C236.06,741.16,235.24,738.5,235.85,736.66Zm1.23,29c-.82,1.63-3.27,2-3.27,2,1.43,2.86,4.7.61,4.7.61s-1,4.9,1.22,7.76a9.9,9.9,0,0,0-2.45,3.27c-1.22,2-3.27,5.31-4.7,6.33,0,0,0,.21-.41.41a13,13,0,0,0,3.07-9c0-7.56-7.76-10.83-7.76-10.83,2.65-1.63,7.55-.61,10.21-4.29,3.27-4.49,4.7-12.25,5.31-17.56v.4a6.42,6.42,0,0,0,5.11-1.63,33.76,33.76,0,0,0-7.56,13.07c-2.25,7.76-5.72,8.58-5.72,8.58A2.64,2.64,0,0,0,237.08,765.67Zm6.12,10a4.66,4.66,0,0,1,3.89-.62A4.12,4.12,0,0,1,243.2,775.68Zm3.68-141.35c.21-.41-.41-1.22-1.22-1.63-1-.41-2-.41-2.25,0-.21.61.41,1.43,1.22,1.84C245.66,635,246.68,635,246.88,634.33Zm-1.43,1.23c.21-.21-.2-.82-.82-1s-1-.21-1.22,0c-.21.41.2,1,.82,1.22C244.63,636,245.25,636,245.45,635.56Zm-19.4-13.28a1.14,1.14,0,0,0-1,1.23,1,1,0,0,0,1,1,1.14,1.14,0,0,0,1.22-1A1.32,1.32,0,0,0,226.05,622.28Zm-60.87-8a1.15,1.15,0,0,0,1-1.23,1,1,0,0,0-1-1c-.82,0-1.23.41-1.23,1A1.18,1.18,0,0,0,165.18,614.32Zm-2.66.2a1.14,1.14,0,0,0,1.23-1,1.32,1.32,0,0,0-1.23-1.23,1.15,1.15,0,0,0-1,1.23A1,1,0,0,0,162.52,614.52Zm-2.45,1.23a1.32,1.32,0,0,0,1.23-1.23,1.14,1.14,0,0,0-1.23-1,1,1,0,0,0-1,1A1.15,1.15,0,0,0,160.07,615.75Zm-1.83,1.63a1.14,1.14,0,0,0,1.22-1,1.23,1.23,0,1,0-2.45,0A1.14,1.14,0,0,0,158.24,617.38Zm-1.43,2.25a1.14,1.14,0,0,0,1.22-1,1.23,1.23,0,1,0-2.45,0A1.14,1.14,0,0,0,156.81,619.63Zm-.41,2.65a1.14,1.14,0,0,0,1.22-1A1.17,1.17,0,0,0,156.4,620c-.62,0-1,.4-1,1.22A1,1,0,0,0,156.4,622.28Zm12-2a1.23,1.23,0,0,0,0-2.45,1.25,1.25,0,0,0,0,2.45Zm.41,0a1.25,1.25,0,0,0,0,2.45,1.23,1.23,0,0,0,0-2.45Zm2.86-6.74a1.31,1.31,0,0,0,1.22-1.23,1.25,1.25,0,0,0-2.45,0A1.31,1.31,0,0,0,171.72,613.5Zm2.24-1.43a1.14,1.14,0,0,0,1.23-1,1.32,1.32,0,0,0-1.23-1.23,1.15,1.15,0,0,0-1,1.23A1,1,0,0,0,174,612.07Zm2.45-.61a1.32,1.32,0,0,0,1.23-1.23,1.14,1.14,0,0,0-1.23-1,1,1,0,0,0-1,1A1.15,1.15,0,0,0,176.41,611.46Zm2.46-.41a1.18,1.18,0,0,0,1.22-1.23,1.14,1.14,0,0,0-1.22-1,1,1,0,0,0-1,1C177.84,610.64,178.25,611.05,178.87,611.05Zm2.45,0a1.18,1.18,0,0,0,1.22-1.23,1.14,1.14,0,0,0-1.22-1,1,1,0,0,0-1,1C180.29,610.64,180.7,611.05,181.32,611.05Zm2.45.2c.81,0,1.22-.41,1.22-1a1.08,1.08,0,0,0-1.22-1.22c-.62,0-1,.4-1,1.22A1,1,0,0,0,183.77,611.25Zm2.45.41a1.14,1.14,0,0,0,1.22-1,1.23,1.23,0,1,0-2.45,0A1.15,1.15,0,0,0,186.22,611.66Zm31.66,2.66a1.15,1.15,0,0,0,1-1.23,1,1,0,0,0-1-1,1.14,1.14,0,0,0-1.23,1A1.32,1.32,0,0,0,217.88,614.32Zm2.45.2a1.14,1.14,0,0,0,1.22-1,1.32,1.32,0,0,0-1.22-1.23,1.15,1.15,0,0,0-1,1.23A1,1,0,0,0,220.33,614.52Zm2.45,1.23a1.32,1.32,0,0,0,1.22-1.23,1.25,1.25,0,0,0-2.45,0A1.33,1.33,0,0,0,222.78,615.75Zm.82.61a1,1,0,0,0,1,1,1.14,1.14,0,0,0,1.22-1,1.32,1.32,0,0,0-1.22-1.23A1.14,1.14,0,0,0,223.6,616.36Zm1.43,2.25a1,1,0,0,0,1,1,1.14,1.14,0,0,0,1.22-1,1.31,1.31,0,0,0-1.22-1.23A1.14,1.14,0,0,0,225,618.61Zm1.43,1.43a1.17,1.17,0,0,0-1.23,1.22,1.14,1.14,0,0,0,1.23,1,1,1,0,0,0,1-1C227.48,620.44,227.07,620,226.46,620Zm-12.06.2a1.24,1.24,0,0,0,0-2.45,1.23,1.23,0,0,0,0,2.45Zm-.4,2.45a1.23,1.23,0,0,0,0-2.45,1.25,1.25,0,0,0,0,2.45Zm-2.86-9.19a1.31,1.31,0,0,0,1.22-1.23,1.14,1.14,0,0,0-1.22-1,1,1,0,0,0-1,1A1.14,1.14,0,0,0,211.14,613.5Zm-2.25-1.43a1.15,1.15,0,0,0,1.23-1,1.23,1.23,0,1,0-2.46,0A1.15,1.15,0,0,0,208.89,612.07Zm-2.45-.61a1.32,1.32,0,0,0,1.22-1.23,1.25,1.25,0,0,0-2.45,0A1.33,1.33,0,0,0,206.44,611.46Zm-2.45-.41a1.18,1.18,0,0,0,1.22-1.23,1.25,1.25,0,0,0-2.45,0A1.18,1.18,0,0,0,204,611.05Zm-2.45,0a1.18,1.18,0,0,0,1.22-1.23,1.25,1.25,0,0,0-2.45,0A1.18,1.18,0,0,0,201.54,611.05Zm-2.45.2a1.14,1.14,0,0,0,1.22-1,1.23,1.23,0,0,0-2.45,0A1.14,1.14,0,0,0,199.09,611.25Zm-2.46.41a1.14,1.14,0,0,0,1.23-1,1.32,1.32,0,0,0-1.23-1.23,1.15,1.15,0,0,0-1,1.23A1,1,0,0,0,196.63,611.66Zm-72.71,72.1s1.64-.61,1.84.62c0,.61-1,1.42-.61,4.49.41,4.7,3.67,8.58,5.51,7.76,1-.41.61-2.86-.61-4.08-1.43-1.43-.82-2.46,0-2.25a1.37,1.37,0,0,0-1.43-1c-1.23.2-.41-1.64,1.22-.82a2.28,2.28,0,0,1,1,1.84,2,2,0,0,0,.61-2.45,1.65,1.65,0,0,0-2-1.23s.4-1-.41-1.43c0,0,0,1.23-.82,1.64-1,.4-1.23-.82-.61-1.84.81-1,2.45-.82,2.45.41a.82.82,0,0,0,.61-1,1.11,1.11,0,0,1,1,1,2.84,2.84,0,0,0,0-3.07c-.81-1.43-3.47-1.43-4.08,0a2.56,2.56,0,0,0-1-2,1.72,1.72,0,0,0-2.45.82c1.43-.21,1.83,1,1.63,2A1.19,1.19,0,0,0,123.92,683.76Zm4.7-65.77a1.66,1.66,0,0,1,.61,2.45,1.46,1.46,0,0,0,1.43-1.22,2.55,2.55,0,0,0,2.45.2l.41.21a14.19,14.19,0,0,0-1.63,7.76c.61,4.29,2.86,6.13,5.31,5.31,1.43-.61,2-2,2.45-3.88a12.54,12.54,0,0,0-1.23-7c2.25-.81,3.07,1.64,3.07,1.64a2.19,2.19,0,0,0,0-1.84,3.28,3.28,0,0,1,1.22.61c-.41-3.06-4.08-2.24-4.08-2.24a5,5,0,0,1,3.67-.82,3,3,0,0,1,2.66,2.86,1.29,1.29,0,0,0,.82-1.43c1.63.2,1.43,2,1.43,2a1.8,1.8,0,0,0,1-1.84c1.43,1.23,0,2.86,0,2.86a1.13,1.13,0,0,0,1.43-.81,3.92,3.92,0,0,1,.2,2,2.3,2.3,0,0,0,1-1.84,6.36,6.36,0,0,1,.62,3.88,4.15,4.15,0,0,1-2.66,2.86,4.23,4.23,0,0,1-3.68-1.63c-.61-.82-.41-2.25.41-2.25,1.43,0,1.23,1.63,1.23,1.63a1.09,1.09,0,0,0,1-.81,1.62,1.62,0,0,1,.2,1.63c1.84-1.43.62-3.88-1.43-4.29a3.62,3.62,0,0,0-3.47.61,1.42,1.42,0,0,0-2.25.21c1,0,1,1.43,1,1.43s-.41,5.1,4.28,6.33c5.93,1.43,7.15-4.9,7.15-4.9a2.26,2.26,0,0,1-.41,2.45c1,.2,1.64-1,1.64-1a3.3,3.3,0,0,1-.41,3.06c-1.43-1-3.06,1-1.23,2.45,1.64,1.23,2.86-.82,2.86-.82s.82,2.46,2.46,2.46a1.22,1.22,0,0,0,1-.41h.41c.81,0,1.63-1.43,1.63-1.43.41.41.82.61,1,.41h.2v.4l-.2-.2c-.2.2-.2.2-.2.41.61,3.47,3.47,4.9,3.47,5.11.2.2.2.81.2,1a.74.74,0,0,0-.2.61c0,.41,0,.61.2.82,1.84-2.45,12.67-4.29,25.74-4.29,12.87,0,23.69,1.84,25.53,4.29a1.09,1.09,0,0,0,.41-.82l-.21-.21c0-.4-.2-1.22,0-1.42.21-.41,3.07-1.64,3.48-5.11.2-.21,0-.21-.21-.41l-.2.2V635l-.21-.21.41.21a.75.75,0,0,0,1-.41h.21s.61,1.43,1.63,1.43h.21a1.19,1.19,0,0,0,1,.41c1.63,0,2.45-2.46,2.45-2.46s1.22,2.05,3.06.82c1.84-1.43,0-3.47-1.43-2.45a3.3,3.3,0,0,1-.41-3.06s.62,1.22,1.64,1a2.28,2.28,0,0,1-.41-2.45s1.23,6.33,7.15,4.9c4.7-1.23,4.29-6.33,4.29-6.33s0-1.43,1-1.43a1.37,1.37,0,0,0-2.25-.21,3.34,3.34,0,0,0-3.27-.61c-2.24.41-3.47,2.86-1.63,4.29a1.43,1.43,0,0,1,.41-1.63.8.8,0,0,0,.82.81s0-1.63,1.22-1.63c.82,0,1.23,1.43.41,2.25a3.84,3.84,0,0,1-3.47,1.63,4,4,0,0,1-2.86-2.86,5.76,5.76,0,0,1,.81-3.88,1.89,1.89,0,0,0,.82,1.84,4,4,0,0,1,.21-2,1.13,1.13,0,0,0,1.43.81,2.11,2.11,0,0,1,.2-2.86,1.52,1.52,0,0,0,.82,1.84s-.21-1.84,1.43-2a1.7,1.7,0,0,0,.81,1.43,3,3,0,0,1,2.66-2.86,5,5,0,0,1,3.68.82s-3.48-.82-3.88,2.24a2.13,2.13,0,0,1,1.22-.61,1.79,1.79,0,0,0-.2,1.84,2.53,2.53,0,0,1,3.26-1.64,10.83,10.83,0,0,0-1.22,7c.2,1.84.82,3.27,2.25,3.88,2.45.82,4.9-1,5.31-5.31a15.27,15.27,0,0,0-1.43-7.76l.2-.21a3,3,0,0,0,2.66-.2,1.27,1.27,0,0,0,1.43,1.22,1.53,1.53,0,0,1,.61-2.45,2.25,2.25,0,0,0,0-4.08c-2.25-1-5.31.2-6.74,2.65,0,0-1.64-2-.41-3.47a1.15,1.15,0,0,0-1.23,0s0-1.22.82-1.63a1.38,1.38,0,0,0-1,0s.2-1.43,2.45-1.43a2.23,2.23,0,0,0-2.86.41,1.07,1.07,0,0,1,0-1.43s-1.63.2-1.43,2.65a2.19,2.19,0,0,1-.82-1.63s-1.43,2,.41,5.92a12.2,12.2,0,0,0-8.37-.82c-4.9,1.23-8.17,6.74-8.38,11.44-.4,3.47-1,5.11-1.83,5.52,0-.41,0-.62-.21-.82.41-.41.82-1.43-.2-1.84a1.9,1.9,0,0,0-2,.82l.2.2h-.2c0-.41-.21-.61-.21-.81a25.71,25.71,0,0,1,1.84-2.86c.41-.62,1.43-.82.82-1.64.61-.61.2-1.22-.41-1.63a6.1,6.1,0,0,0-1.43-7.15,8,8,0,0,0-7.36-1.84,1.7,1.7,0,0,0,.62-1,1.33,1.33,0,0,0-1.23-1.23,1.15,1.15,0,0,0-1,1.23,1,1,0,0,0,1,1,14.32,14.32,0,0,1-1.63.61,1.56,1.56,0,0,0,.41-.81,1.14,1.14,0,0,0-1-1.23,1.18,1.18,0,0,0-1.23,1.23c0,.61.41,1,1.23,1a.78.78,0,0,1-.62.2c-1-1.84-2.45-3.27-6.94-4.08a23.86,23.86,0,0,0-11.85,1.22,3.56,3.56,0,0,0,1.43-2.86,3.36,3.36,0,0,0-3.06-3.47V603.7h2.24v-1h-2.24v-2.45h-1v2.45h-2.25v1h2.25v2.65a3.52,3.52,0,0,0-1.64,6.33,23.83,23.83,0,0,0-11.84-1.22c-4.5.81-5.93,2.24-6.75,4.08l-.2.21v-.21c-.2,0-.2,0-.41-.2a1,1,0,0,0,1-1,1.14,1.14,0,0,0-1-1.23,1.31,1.31,0,0,0-1.22,1.23,1.49,1.49,0,0,0,.41.81c-.62-.2-1-.41-1.64-.61a1.15,1.15,0,0,0,1.23-1,1.33,1.33,0,0,0-1.23-1.23,1.15,1.15,0,0,0-1,1.23,1.11,1.11,0,0,0,.61,1,8.37,8.37,0,0,0-7.55,1.84,6.08,6.08,0,0,0-1.43,7.15c-.21,0-.21.2-.41.41,0-.21.2-.21.2-.41a1.23,1.23,0,1,0-2.45,0,1.21,1.21,0,0,0,2.25.41c0,.2-.21.4-.21.61v.41l.21.2c-.41.82.41,1,.81,1.64a15.47,15.47,0,0,1,2.05,2.86,1,1,0,0,0-.41.81v-.2s-.82-1.23-1.84-.82c-1.23.41-.61,1.43-.41,1.84-.2.2-.2.41-.2.82-.62-.41-1.43-2.05-1.64-5.52-.41-4.7-3.67-10.21-8.37-11.44a12.65,12.65,0,0,0-8.58.82c1.84-3.88.41-5.92.41-5.92a1.72,1.72,0,0,1-.61,1.63c0-2.45-1.64-2.65-1.64-2.65a1.07,1.07,0,0,1,0,1.43c-1-1.43-2.86-.41-2.86-.41,2.25,0,2.45,1.43,2.45,1.43a1.38,1.38,0,0,0-1,0,2.45,2.45,0,0,1,1,1.63,1.47,1.47,0,0,0-1.43,0c1.43,1.43-.2,3.47-.2,3.47-1.43-2.45-4.7-3.67-6.74-2.65A2.16,2.16,0,0,0,128.62,618Zm118.26,4.7s2,4.49.82,6.13C246.47,630.25,244.63,626.78,246.88,622.69Zm-22.47,11.64a1,1,0,0,0,.21-1.43h.2a.73.73,0,0,0,.41.21,11,11,0,0,1-.82,1.63Zm-50.65-3.88c-.61.21-1.23-.61-1.43-1.63,0-1,.41-2,.82-2,.61-.21,1.22.61,1.43,1.63S174.37,630.45,173.76,630.45Zm34.52-2c.2-1,.81-1.84,1.43-1.63.61,0,1,1,.81,2s-.81,1.84-1.43,1.63C208.48,630.45,208.07,629.43,208.28,628.41Zm14.3,4.08c-.21,1-.82,1.84-1.43,1.84-.41-.2-.62-1-.41-2.24.2-1,.81-1.84,1.43-1.84C222.58,630.45,222.78,631.47,222.58,632.49Zm-9.4-9.19a1.29,1.29,0,0,0-.61-1.63,6.86,6.86,0,0,0,.2-4.9H213a1.08,1.08,0,0,0,1,1,1.31,1.31,0,0,0,1.22-1.23c0-.2-.2-.41-.2-.61,2.86-.61,5.31-.41,7.56,1.63A4.42,4.42,0,0,1,224,623.1a2.11,2.11,0,0,0-1.42,1s-1-1-1.64.82a10.11,10.11,0,0,0,0,4.49l-.41.41s-.61-2-1.63-2.45-2,1.63-2.25,2.86c-.41,1.22-.41,3.88.82,3.67a7.45,7.45,0,0,0,2-.81,3.23,3.23,0,0,1,.21-1.84v.61a2.43,2.43,0,0,0,.2,2.45h-.82a2.2,2.2,0,0,0-.41,1.43.69.69,0,0,0,.21.41c.2,0,.41,0,.41-.2a8.72,8.72,0,0,1,.2-1l.21.2a5.48,5.48,0,0,1-1.43,2.86,2.5,2.5,0,0,1-2.66,0,1,1,0,0,0,1-1,1.18,1.18,0,0,0-1.22-1.23,1.15,1.15,0,0,0-1,1.23.73.73,0,0,0,.21.61c-1.84-.41-4.09-1.63-4.49-4.08-.21-.82-.21-1.23.2-1.43.2-.21.41,0,.61,0a1,1,0,0,1,0,.81v.41h.41a1.05,1.05,0,0,0,0-1.63,1.22,1.22,0,0,0-1.43-.21.77.77,0,0,0-.41.62l-.2-.21-.21-.2a2.86,2.86,0,0,0,1.43-1.64c1.43.41,1.64,2.25,2.86,2.86a1.28,1.28,0,0,0,1.43-1.63c.82.2,1.23-.82,1-1.63a1.24,1.24,0,0,0-.61-1.84,1.13,1.13,0,0,0-.82-1.84c-1.42.2-2,1.84-3.67,1.63v.62a9,9,0,0,0-.21-1C210.93,625.14,212.57,624.94,213.18,623.3Zm-20.83-8s9.19-3.88,14.7-2a6.4,6.4,0,0,1,4.5,7.14c-.41-.2-.82-.4-1.23,0a1.06,1.06,0,0,0-1.84.62c-.82-.82-1.84,0-1.63,1,0,1.84,1.63,2.65,1.22,4.7a1.05,1.05,0,0,0-.41.81v-.41c-1.83-.4-2-2.24-3.67-2.86a1.08,1.08,0,0,0-1.43,1.43,1.13,1.13,0,0,0-1.23,1.64,1.25,1.25,0,0,0,.62,1.84,1.2,1.2,0,0,0,1,1.84c1.84-.21,2.45-1.64,4.29-1.43a2.56,2.56,0,0,0,.81,1.83l-.2.21-.21.2c0-.41-.2-.81-.4-.81a1,1,0,0,0-1.23-.41,1.21,1.21,0,0,0-.61,1.63c.2.2.2.2.41.2s.4-.2.2-.4a.64.64,0,0,1,.41-.82.65.65,0,0,1,.41.2,1.71,1.71,0,0,1,0,1.43,5.76,5.76,0,0,1-5.72,2.45h-.41a1.11,1.11,0,0,0,.61-1,1.14,1.14,0,0,0-1-1.22,1.31,1.31,0,0,0-1.22,1.22,1.07,1.07,0,0,0,.4.82h-.4c-2.05-.2-4.91-1-5.93-3.47-.2-.61-.2-1.23.21-1.43A1,1,0,0,1,194,630a.72.72,0,0,1,.2.82.72.72,0,0,0,.21.61.65.65,0,0,0,.41-.2,1.13,1.13,0,0,0-.41-1.63,1,1,0,0,0-1.43,0,2.54,2.54,0,0,0-.61.81c0-.2-.21-.2-.21-.41h-.2c.81-.2,1.22-1,1.63-1.83,1.84.2,2.25,1.83,4.09,2.24,1,.21,2-.81,1.43-1.63a1.24,1.24,0,0,0,1-1.84c.41-.82,0-2-1-1.84a1.27,1.27,0,0,0-1.43-1.84c-1.84.41-2.25,2.25-4.5,2.25,0-.2-.2-.41-.41-.61.21-2,1.84-2.45,2.25-4.29.21-.82-.82-1.84-1.63-1.43a1,1,0,0,0-1-1Zm-.82,9.6a1.89,1.89,0,0,1,1.43,2,1.82,1.82,0,0,1-1.43,1.84c-.82,0-1.43-.82-1.43-1.84C190.1,625.75,190.71,624.94,191.53,624.94ZM175.8,613.3c5.52-1.84,14.71,2,14.71,2v2.86a.83.83,0,0,0-.82,1,1.37,1.37,0,0,0-1.84,1.43c.41,1.84,2,2.25,2.25,4.29-.21.2-.21.41-.41.61-2.25,0-2.45-1.84-4.49-2.25a1.37,1.37,0,0,0-1.43,1.84c-1-.2-1.43,1-.82,1.84a1.1,1.1,0,0,0,.82,1.84c-.41.82.61,1.84,1.43,1.63,1.84-.41,2.24-2,4.29-2.24a2.67,2.67,0,0,0,1.43,1.83h-.21c0,.21-.2.21-.2.41-.21-.41-.41-.61-.41-.81a1.24,1.24,0,0,0-1.64,0,1.32,1.32,0,0,0-.4,1.63.74.74,0,0,0,.61.2c0-.2.2-.4,0-.61a.72.72,0,0,1,.2-.82.75.75,0,0,1,.62.21c.4.2.4.82.2,1.43-1,2.45-3.68,3.27-5.92,3.47h-.41a1.07,1.07,0,0,0,.41-.82,1.18,1.18,0,0,0-1.23-1.22,1.14,1.14,0,0,0-1,1.22,1.11,1.11,0,0,0,.61,1h-.2c-2,.21-4.49-.2-5.72-2.45-.41-.61-.41-1.22-.2-1.43a.74.74,0,0,1,.61-.2c.41.2.2.61.2.82s0,.4.21.4.41,0,.41-.2a1.22,1.22,0,0,0-.62-1.63c-.41-.21-.81,0-1.22.41-.21,0-.41.4-.41.81l-.21-.2-.2-.21a2.56,2.56,0,0,0,.82-1.83c1.84-.21,2.45,1.22,4.29,1.43a1.21,1.21,0,0,0,1-1.84,1.07,1.07,0,0,0,.61-1.84,1.12,1.12,0,0,0-1.23-1.64,1.07,1.07,0,0,0-1.42-1.43c-1.64.62-1.64,2.46-3.68,2.86l.2.41a2.7,2.7,0,0,0-.61-.81c-.2-2,1.23-2.86,1.43-4.7,0-1-1-1.84-1.84-1a1,1,0,0,0-1.84-.62c-.2-.4-.81-.2-1,0A6.16,6.16,0,0,1,175.8,613.3Zm-15.52,10.82h0c-.41-.61-.82-1-1.43-1a4.41,4.41,0,0,1,1.43-5.52c2.24-2,4.9-2.24,7.56-1.63v.61a1.14,1.14,0,0,0,1,1.23c.61,0,1-.61,1.22-1a6.82,6.82,0,0,0,.21,4.9,1.46,1.46,0,0,0-.41,1.63c.61,1.64,2.24,1.84,2.65,3.88a1.62,1.62,0,0,0-.41,1v-.62c-1.63.21-2.24-1.43-3.67-1.63a1.13,1.13,0,0,0-.82,1.84,1.09,1.09,0,0,0-.41,1.84c-.41.81.21,1.83,1,1.63a1.18,1.18,0,0,0,1.23,1.63c1.43-.61,1.43-2.45,3.06-2.86a2.16,2.16,0,0,0,1.23,1.64l-.21.2v.21c-.2-.41-.4-.62-.61-.62a1.26,1.26,0,0,0-1.43.21c-.61.61-.2,1.22,0,1.63h.41v-.41a.72.72,0,0,1,.2-.81.28.28,0,0,1,.41,0c.41.2.41.61.41,1.43a5.93,5.93,0,0,1-4.7,4.08.73.73,0,0,0,.21-.61,1.15,1.15,0,0,0-1-1.23A1.32,1.32,0,0,0,166.2,637a1,1,0,0,0,1,1,2.15,2.15,0,0,1-2.45,0,3.58,3.58,0,0,1-1.43-2.86V635c.21.2.21.61.21,1,0,.2.2.2.4.2s.21-.2.21-.41a2.2,2.2,0,0,0-.41-1.43h-.41l-.41.21a2.94,2.94,0,0,0,.41-1.43,7.17,7.17,0,0,0,2.25.81c1,.21,1-2.45.82-3.67C166,629,165,627,164,627.39s-1.63,2.45-1.63,2.45l-.41-.41a10.11,10.11,0,0,0,0-4.49C161.3,623.1,160.28,624.12,160.28,624.12Zm.61,6.13c.41,0,1,.82,1.23,1.84.2,1.22,0,2-.41,2.24-.41,0-1-.81-1.43-1.84C160.07,631.47,160.28,630.45,160.89,630.25Zm-2.65,2.65h0c-.21.41-.21,1.23.2,1.43l.2.41a3.63,3.63,0,0,1-.81-1.63C158,633.11,158,632.9,158.24,632.9ZM136,622.69c2.25,4.09.41,7.56-.82,6.13C133.93,627.18,136,622.69,136,622.69Zm3.47,10c-.2-.41-1.22-.41-2.24,0-.82.41-1.43,1.22-1.23,1.63.41.62,1.23.62,2.25.21S139.65,633.31,139.44,632.7Zm.21,1.84a1.64,1.64,0,0,0-1.43,0c-.61.2-1,.81-.82,1,.21.41.82.41,1.43.2A1.27,1.27,0,0,0,139.65,634.54Zm-13.07-3.47c.2-1.43,1.22-2.25,1.83-1.64.62.41,0,1.23,0,1.23a.93.93,0,0,0,1-.41,1.29,1.29,0,0,0-.21-1.84,1.86,1.86,0,0,1,2,.82,5.09,5.09,0,0,1,0,1.84c1-2.05,0-4.29-2-4.5-2,0-4.08,1-3.88,4.09a4.53,4.53,0,0,0,1.23,3.47A7.44,7.44,0,0,1,126.58,631.07Zm3.88,68.83a1.07,1.07,0,0,0,.81.41c.41-.21.62-.41.62-.62a1.08,1.08,0,0,0-.82-.4A.64.64,0,0,0,130.46,699.9Zm-.41-2.66c.2.41.41.41.82.41.2,0,.61-.41.4-.61,0-.21-.2-.41-.61-.41C130.25,696.83,130.05,697,130.05,697.24Zm-.21,1.43a1.25,1.25,0,0,0,1.23.62,1.1,1.1,0,0,0,1-1,1.24,1.24,0,0,0-1.22-.61C130.25,697.86,129.84,698.26,129.84,698.67ZM213.18,762l-.2.21v.2Zm-57.4-9.6H156l-.41-.2-.41-.21H155l.41.21Zm28.6-83.13h0v0Zm42.89,82.93-.2.2.61-.2.21-.21Zm4.29-2.45V666H151.29v83.75c0,2.24,1.23,8.17,2.66,9.8a14.4,14.4,0,0,0,9.8,5.72l17.36,1a23,23,0,0,1,4.9.2,5.61,5.61,0,0,1,2.45-1.63c.21.2.62-.41.62-.41v2c-.41,0-.62.21-1,.41a8.64,8.64,0,0,1,3.47,2.25,6.71,6.71,0,0,1,3.27-2.25,1.63,1.63,0,0,0-.82-.41v-2s.2.61.41.41a6.85,6.85,0,0,1,2.65,1.63,23.11,23.11,0,0,1,4.91-.2l17.15-1a14.41,14.41,0,0,0,9.81-5.72C230.34,757.91,231.56,752,231.56,749.74Zm-2.86-31-1.63.82c-.21.2-.61,0-.61-.41a1.69,1.69,0,0,1,.61-1l1.63-.82c.21-.2.41,0,.41.41A1.52,1.52,0,0,1,228.7,718.69Zm0-1.84-1.63,1c-.41.21-.82,0-.82-.61a1.35,1.35,0,0,1,.82-1l1.63-1c.41-.21.82,0,.82.41A1.37,1.37,0,0,1,228.7,716.85Zm.21-2-2,1.22c-.4.21-.81-.2-.81-.61a1.75,1.75,0,0,1,.81-1.43l2-1c.41-.2.81,0,.81.61A1.68,1.68,0,0,1,228.91,714.81Zm-.21-2-1.63,1c-.41.2-.82,0-.82-.41a1.4,1.4,0,0,1,.82-1.23l1.63-1c.41-.2.82,0,.82.61A1.38,1.38,0,0,1,228.7,712.77Zm-1.63-13.28v-1.63c0-.41.2-.62.61-.82l.41-.21c.41,0,.61,0,.61.41v1.64c0,.41-.2.61-.61.81.41-.2.61,0,.61.41v1.64a1.08,1.08,0,0,1-.61.81l-.41.21c-.41,0-.61-.21-.61-.41v-1.63c0-.41.2-.82.61-.82C227.27,699.9,227.07,699.9,227.07,699.49Zm.61-22.67.41-.21c.41,0,.61,0,.61.41v1.64c0,.4-.2.61-.61.81l-.41.21c-.41.2-.61,0-.61-.41v-1.64A1.08,1.08,0,0,1,227.68,676.82Zm-.61-.41v-1.63c0-.41.2-.62.61-.82l.41-.21c.41,0,.61,0,.61.41v1.64c0,.4-.2.61-.61.81l-.41.21C227.27,676.82,227.07,676.82,227.07,676.41Zm.61,3.27.41-.21c.41,0,.61,0,.61.41v1.64c0,.4-.2.81-.61.81l-.41.21c-.41.2-.61,0-.61-.41v-1.64A1.08,1.08,0,0,1,227.68,679.68Zm0,2.86.41-.21c.41,0,.61.21.61.41v1.64c0,.4-.2.81-.61.81l-.41.21c-.41.2-.61,0-.61-.21v-1.84A1.08,1.08,0,0,1,227.68,682.54Zm0,3.06.41-.2c.41-.21.61,0,.61.2v1.84a.65.65,0,0,1-.61.61l-.41.21c-.41.2-.61,0-.61-.21v-1.84A.65.65,0,0,1,227.68,685.6Zm0,2.86.41-.2c.41-.21.61,0,.61.2v1.84a.65.65,0,0,1-.61.61l-.41.21c-.41.2-.61,0-.61-.21v-1.63C227.07,688.87,227.27,688.46,227.68,688.46Zm0,2.86.41-.2c.41-.21.61,0,.61.4v1.64a1.08,1.08,0,0,1-.61.81l-.41.21c-.41,0-.61-.21-.61-.41v-1.63C227.07,691.73,227.27,691.32,227.68,691.32Zm0,2.86.41-.21c.41-.2.61,0,.61.41V696a1.08,1.08,0,0,1-.61.81l-.41.21c-.41,0-.61,0-.61-.41V695C227.07,694.59,227.27,694.38,227.68,694.18Zm0,8.58.41-.21c.41-.2.61,0,.61.41v1.64a1.08,1.08,0,0,1-.61.81l-.41.21c-.41,0-.61,0-.61-.41v-1.64C227.07,703.17,227.27,703,227.68,702.76Zm0,2.86.41-.21c.41,0,.61,0,.61.41v1.64c0,.4-.2.61-.61.81l-.41.21c-.41,0-.61,0-.61-.41v-1.64C227.07,706,227.27,705.82,227.68,705.62Zm-.41,3.27,1.23-.82c.2,0,.41,0,.41.41a1.05,1.05,0,0,1-.41.81l-1.23.62c-.41.2-.61,0-.61-.21C226.66,709.29,226.86,708.89,227.27,708.89Zm-.2,1.43,1.63-.82c.21-.21.41,0,.41.41a1.54,1.54,0,0,1-.41,1l-1.63.81c-.21.21-.61,0-.61-.4A1.69,1.69,0,0,1,227.07,710.32Zm2-37.38a2,2,0,0,1-2.86,0,3.63,3.63,0,0,0,3.07-1.64A1.68,1.68,0,0,1,229.11,672.94Zm-.61-3.07c.82.82.61,1.43-.41,2.25-.82.61-1.63.61-2,.2a2,2,0,0,1,.2-1.83C227.07,669.26,227.89,669.26,228.5,669.87Zm-3.07-.61a1.41,1.41,0,0,1,1.64,0,2.78,2.78,0,0,0-1.43,2.86A1.83,1.83,0,0,1,225.43,669.26Zm-3.47-.61h1.64c.4,0,.61.41.81.61l.21.61c.2.21,0,.41-.41.41h-1.63a1.49,1.49,0,0,1-.82-.41l-.21-.61C221.55,669.06,221.55,668.65,222,668.65Zm-2.86,0h1.64c.41,0,.61.41.81.61l.21.61c0,.21,0,.41-.41.41h-1.63a1,1,0,0,1-.82-.41l-.21-.61C218.69,669.06,218.69,668.65,219.1,668.65Zm-2.86,0h1.64c.2,0,.61.41.81.61l.21.61c0,.21,0,.41-.41.41h-1.63a1,1,0,0,1-.82-.41l-.21-.61C215.63,669.06,215.83,668.65,216.24,668.65Zm-2.86,0H215c.2,0,.61.41.81.61l.21.61a.44.44,0,0,1-.41.41H214c-.41,0-.82-.2-.82-.41l-.2-.61C212.77,669.06,213,668.65,213.38,668.65Zm-3.06,0h1.84c.2,0,.61.41.82.61v.61c.2.21,0,.41-.21.41h-1.63c-.41,0-.82-.2-.82-.41l-.2-.61A.39.39,0,0,1,210.32,668.65Zm-2.86,0h1.84a.93.93,0,0,1,.61.61l.21.61c.2.21,0,.41-.21.41h-1.84c-.2,0-.61-.2-.61-.41l-.2-.61A.39.39,0,0,1,207.46,668.65Zm-2.86,0h1.63a.92.92,0,0,1,.82.61l.21.61c.2.21,0,.41-.21.41h-1.84a1.49,1.49,0,0,1-.81-.41v-.61A.39.39,0,0,1,204.6,668.65Zm-2.86,0h1.64a.92.92,0,0,1,.81.61l.21.61c.2.21,0,.41-.41.41h-1.64a1.49,1.49,0,0,1-.81-.41l-.21-.61C201.33,669.06,201.54,668.65,201.74,668.65Zm-4.29.2c0-.2.41-.41.61-.41a.44.44,0,0,1,.41.41c.21,0,.21-.2.41-.2h1.64c.4,0,.61.41.81.61l.21.61c.2.21,0,.41-.41.41h-1.64a1.49,1.49,0,0,1-.81-.41l-.21-.61v.82c0,.41-.2.61-.41.61a.65.65,0,0,1-.61-.61Zm-1.43,0a.65.65,0,0,1,.61-.61.54.54,0,0,1,.62.61v1.43a.54.54,0,0,1-.62.61.65.65,0,0,1-.61-.61Zm-1.63-.2c0-.41.41-.62.82-.62a.55.55,0,0,1,.61.62v1.84a.54.54,0,0,1-.61.61c-.41,0-.82-.21-.82-.61Zm-1.84-.21c0-.41.41-.61.82-.61s.81.2.81.61v2a.87.87,0,0,1-.81.81.88.88,0,0,1-.82-.81Zm-2,0a1,1,0,0,1,1-1,.94.94,0,0,1,.82,1v2.25a.88.88,0,0,1-.82.82.94.94,0,0,1-1-.82Zm-1.84,0c0-.41.41-.61.82-.61s.81.2.81.61v2a.82.82,0,0,1-1.63,0Zm-1.63.21c0-.41.4-.62.81-.62a.65.65,0,0,1,.61.62v1.84a.65.65,0,0,1-.61.61c-.41,0-.81-.21-.81-.61Zm-1.43.2a.61.61,0,1,1,1.22,0v1.43a.61.61,0,0,1-1.22,0Zm-3.27-.2H184l.41.2a.44.44,0,0,1,.41-.41c.41,0,.61.21.61.41v1.23a.54.54,0,0,1-.61.61c-.21,0-.41-.2-.41-.61v-.82l-.2.61a1.06,1.06,0,0,1-.82.41h-1.64c-.4,0-.4-.2-.4-.41l.2-.61C181.72,669.06,182.13,668.65,182.34,668.65Zm-2.86,0h1.63c.41,0,.41.41.41.61l-.2.61a1.06,1.06,0,0,1-.82.41h-1.63c-.41,0-.41-.2-.41-.41l.2-.61C178.87,669.06,179.07,668.65,179.48,668.65Zm-2.86,0h1.63c.41,0,.41.41.41.61l-.2.61a1.55,1.55,0,0,1-.82.41H176c-.41,0-.62-.2-.41-.41l.2-.61C176,669.06,176.21,668.65,176.62,668.65Zm-2.86,0h1.63c.41,0,.41.41.41.61l-.2.61a1.55,1.55,0,0,1-.82.41h-1.63c-.41,0-.62-.2-.41-.41l.2-.61A.92.92,0,0,1,173.76,668.65Zm-2.86,0h1.63a.39.39,0,0,1,.21.61v.61a1.55,1.55,0,0,1-.82.41h-1.84c-.2,0-.41-.2-.2-.41l.2-.61A.92.92,0,0,1,170.9,668.65Zm-3.06,0h1.83a.39.39,0,0,1,.21.61l-.21.61c0,.21-.4.41-.61.41h-1.84c-.2,0-.41-.2-.2-.41l.2-.61A.92.92,0,0,1,167.84,668.65Zm-2.86,0h1.83a.39.39,0,0,1,.21.61l-.21.61c0,.21-.4.41-.81.41h-1.64c-.2,0-.41-.2-.2-.41l.2-.61A.92.92,0,0,1,165,668.65Zm-2.86,0h1.63c.41,0,.61.41.41.61l-.21.61c0,.21-.4.41-.81.41H161.5a.43.43,0,0,1-.4-.41l.2-.61C161.5,669.06,161.91,668.65,162.12,668.65Zm-3.68.61c.2-.2.61-.61.82-.61h1.63c.41,0,.61.41.41.61l-.2.61a1.06,1.06,0,0,1-.82.41h-1.64c-.4,0-.4-.2-.4-.41Zm-1,0a2,2,0,0,1,0,2.86,3.2,3.2,0,0,0-1.64-2.86S156.81,668.65,157.42,669.26Zm-3.07.61c.62-.61,1.43-.61,2.25.62.41.81.61,1.43.21,1.83a1.32,1.32,0,0,1-1.84-.2C153.74,671.3,153.54,670.69,154.35,669.87Zm-.61,1.43a3.2,3.2,0,0,0,2.86,1.64,2,2,0,0,1-2.86,0C153.13,672.32,153.74,671.3,153.74,671.3Zm.61,27.58v-1.64c0-.41.21-.41.41-.41l.62.21a1.07,1.07,0,0,1,.4.82v1.63c0,.41-.2.41-.4.41.2,0,.4.41.4.82v1.63a.44.44,0,0,1-.4.41l-.62-.21a1.56,1.56,0,0,1-.41-.81V700.1c0-.41.21-.61.41-.41A1.05,1.05,0,0,1,154.35,698.88Zm.41-22.27.62.21a1.54,1.54,0,0,1,.4.81v1.64c0,.41-.2.61-.4.41l-.62-.21a1.07,1.07,0,0,1-.41-.81V677C154.35,676.61,154.56,676.61,154.76,676.61Zm-.41-.81v-1.64c0-.41.21-.41.41-.41l.62.21a1.07,1.07,0,0,1,.4.82v1.63c0,.41-.2.41-.4.41l-.62-.21A1.07,1.07,0,0,1,154.35,675.8Zm.41,3.67.62.21a1.54,1.54,0,0,1,.4.81v1.64c0,.41-.2.61-.4.41l-.62-.21c-.2,0-.41-.41-.41-.81v-1.64C154.35,679.47,154.56,679.47,154.76,679.47Zm0,2.86.62.21a1.54,1.54,0,0,1,.4.81v1.84c0,.21-.2.41-.4.21l-.62-.21c-.2,0-.41-.41-.41-.81v-1.64A.45.45,0,0,1,154.76,682.33Zm0,3.07.62.2c.2,0,.4.41.4.61v1.84c0,.21-.2.41-.4.21l-.62-.21c-.2,0-.41-.41-.41-.61V685.6C154.35,685.4,154.56,685.19,154.76,685.4Zm0,2.86.62.2c.2,0,.4.41.4.82v1.63c0,.21-.2.41-.4.21l-.62-.21c-.2,0-.41-.41-.41-.61v-1.84C154.35,688.26,154.56,688.05,154.76,688.26Zm0,2.86.62.2c.2,0,.4.41.4.82v1.63a.44.44,0,0,1-.4.41l-.62-.21a1.56,1.56,0,0,1-.41-.81v-1.64C154.35,691.12,154.56,690.91,154.76,691.12Zm0,2.85.62.21a1.07,1.07,0,0,1,.4.82v1.63c0,.41-.2.41-.4.41l-.62-.21a1.56,1.56,0,0,1-.41-.81v-1.64C154.35,694,154.56,693.77,154.76,694Zm0,8.58.62.21a1.06,1.06,0,0,1,.4.81v1.64c0,.41-.2.41-.4.41l-.62-.21a1.56,1.56,0,0,1-.41-.81V703C154.35,702.55,154.56,702.35,154.76,702.55Zm0,2.86.62.21a1.06,1.06,0,0,1,.4.81v1.64c0,.41-.2.41-.4.41l-.62-.21a1.07,1.07,0,0,1-.41-.81v-1.64C154.35,705.41,154.56,705.41,154.76,705.41Zm-.41,2.66,1.23.82c.41,0,.61.4.61.81,0,.21-.2.41-.61.21l-1.23-.62a1,1,0,0,1-.4-.81C154,708.07,154.15,708.07,154.35,708.07Zm0,1.43,1.43.82a1.12,1.12,0,0,1,.62,1c0,.4-.21.61-.62.4l-1.43-.81a1.14,1.14,0,0,1-.61-1C153.74,709.5,154,709.29,154.35,709.5Zm-.2,1.63,1.84,1a1.25,1.25,0,0,1,.61,1.23c0,.41-.2.61-.61.41l-1.84-1a1.14,1.14,0,0,1-.61-1C153.54,711.13,153.74,710.93,154.15,711.13Zm0,1.84,1.84,1a1.38,1.38,0,0,1,.82,1.43c0,.41-.21.82-.82.61l-1.84-1.22a1.29,1.29,0,0,1-.82-1.23C153.33,713,153.54,712.77,154.15,713Zm0,2.25,1.84,1a1.11,1.11,0,0,1,.61,1c0,.61-.2.82-.61.61l-1.84-1a1.22,1.22,0,0,1-.61-1.22C153.54,715.22,153.74,715,154.15,715.22Zm-.41,2.45c0-.41.21-.61.61-.41l1.43.82a1.12,1.12,0,0,1,.62,1c0,.41-.21.61-.62.41l-1.43-.82A1.13,1.13,0,0,1,153.74,717.67Zm.61,1.43,1.23.61c.41.21.61.41.61.82s-.2.41-.61.41l-1.23-.82c-.2,0-.4-.41-.4-.82C154,719.1,154.15,718.89,154.35,719.1Zm1,21.85-.62-.2a1.59,1.59,0,0,1-.41-.82V738.3c0-.41.21-.61.41-.41l.62.2a1.08,1.08,0,0,1,.4.82v1.63C155.78,741,155.58,741,155.38,741Zm.4.82v1.63c0,.41-.2.41-.4.41l-.62-.2a1.09,1.09,0,0,1-.41-.82v-1.63c0-.41.21-.41.41-.41l.62.2A1.08,1.08,0,0,1,155.78,741.77Zm-.4-3.68-.62-.2a1.56,1.56,0,0,1-.41-.82v-1.63c0-.41.21-.61.41-.41l.62.2c.2,0,.4.41.4.82v1.64A.43.43,0,0,1,155.38,738.09Zm0-3.06-.62-.2c-.2,0-.41-.41-.41-.62v-1.84c0-.2.21-.4.41-.2l.62.2c.2,0,.4.41.4.82v1.64C155.78,735,155.58,735.23,155.38,735Zm0-2.86-.62-.2c-.2,0-.41-.41-.41-.62v-1.84c0-.2.21-.4.41-.2l.62.2c.2,0,.4.41.4.62V732C155.78,732.17,155.58,732.37,155.38,732.17Zm0-2.86-.62-.2c-.2,0-.41-.41-.41-.82v-1.63a.44.44,0,0,1,.41-.41l.62.2a1.57,1.57,0,0,1,.4.82v1.84C155.78,729.31,155.58,729.51,155.38,729.31Zm0-2.86-.62-.2a1.09,1.09,0,0,1-.41-.82V723.8c0-.41.21-.41.41-.41l.62.2a1.57,1.57,0,0,1,.4.82V726C155.78,726.45,155.58,726.66,155.38,726.45Zm0-2.86-.62-.2a1.09,1.09,0,0,1-.41-.82v-1.63c0-.41.21-.41.41-.41l.62.2a1.08,1.08,0,0,1,.4.82v1.63C155.78,723.59,155.58,723.8,155.38,723.59Zm-1,23.29c0-.41.21-.62.41-.41a1.09,1.09,0,0,1-.41-.82V744c0-.41.21-.41.41-.41l.62.2a1.61,1.61,0,0,1,.4.82v1.63c0,.41-.2.62-.4.41a1.08,1.08,0,0,1,.4.82v1.63c0,.41-.2.41-.4.41l-.62-.2a1.63,1.63,0,0,1-.41-.82Zm.21,5.51A.44.44,0,0,1,155,752a.43.43,0,0,1-.41-.41l-.21-1.63c-.2-.41.21-.61.41-.41h.62a.93.93,0,0,1,.61.61l.2,1.84c.21.21,0,.21-.2.41.2,0,.2.21.41.41l.2,1.63c0,.41-.2.62-.41.41h-.61c-.2-.2-.61-.41-.61-.81Zm.82,4.7a.61.61,0,0,1,0-.82l1-1a.42.42,0,0,1,.81,0,.61.61,0,0,1,0,.82l-1,1A.62.62,0,0,1,155.38,757.09Zm.81,1.22a.93.93,0,0,1,0-1l1.23-1.22a.89.89,0,0,1,1,0,.92.92,0,0,1,0,1l-1.23,1.22A.89.89,0,0,1,156.19,758.31Zm1,1.23a.94.94,0,0,1,0-1l1.43-1.43a.72.72,0,0,1,1,1l-1.23,1.43A.77.77,0,0,1,157.21,759.54Zm1.43,1c-.4-.2-.4-.61,0-1l1.23-1.23a.64.64,0,0,1,.82,0c.41.41.41.82,0,1l-1.23,1.22A.61.61,0,0,1,158.64,760.56Zm1,.82a.61.61,0,0,1,0-.82l1.22-1a.58.58,0,0,1,.82.82l-1.23,1A.42.42,0,0,1,159.67,761.38ZM172.33,763h-1.64a1,1,0,0,1-.81-.41v-.2a.45.45,0,0,1-.41.41h-1.63c-.21,0-.62-.41-.82-.61V762c0,.21,0,.41-.41.41H165a.65.65,0,0,1-.62-.61l-.2-.21c0,.21,0,.41-.21.41h-1.63a1.06,1.06,0,0,1-.82-.41V761c0-.2.41-.41.62-.41h1.22c.21,0,.61.21.61.41l.21.2c0-.2,0-.4.2-.4H166c.41,0,.81.2.81.61l.21.2c-.21-.2,0-.41.2-.41h1.64c.41,0,.61.21.81.62v.2c0-.41.21-.41.41-.41h1.64a1.56,1.56,0,0,1,.81.41l.21.61A.44.44,0,0,1,172.33,763Zm2.86,0h-1.64a1,1,0,0,1-.81-.41l-.21-.61c-.2-.2,0-.41.41-.41h1.64c.2,0,.61.21.61.41l.2.61C175.6,762.81,175.39,763,175.19,763Zm2.65,0h-1.63c-.2,0-.61-.2-.61-.41l-.21-.61c-.2-.2,0-.41.21-.41h1.63a1.09,1.09,0,0,1,.82.41l.2.61C178.46,762.81,178.25,763,177.84,763Zm2.86,0h-1.63a1.55,1.55,0,0,1-.82-.41l-.2-.61a.44.44,0,0,1,.41-.41h1.63a1.09,1.09,0,0,1,.82.41l.2.61C181.11,762.81,181.11,763,180.7,763Zm2.86,0h-1.63a1.06,1.06,0,0,1-.82-.41l-.2-.61c0-.2,0-.41.41-.41H183a1.63,1.63,0,0,1,.82.41v.61C184,762.81,183.77,763,183.56,763Zm2.66.21h-1.64a.92.92,0,0,1-.61-.62l-.2-.61c0-.2,0-.41.41-.41h1.63c.2.21.61.41.61.62l.21.61C186.83,763,186.63,763.42,186.22,763.22Zm2.45,1-1.43-.61c-.41-.21-.61-.41-.61-.82v-.41c0-.41.2-.61.61-.41l1.43.41a1.07,1.07,0,0,1,.61.82v.61C189.28,764,189.08,764.24,188.67,764.24Zm1.84,1.43a.54.54,0,0,1-.62.61c-.2,0-.4-.2-.4-.61v-1.43c0-.41.2-.61.4-.61a.54.54,0,0,1,.62.61Zm1.63.2c0,.41-.2.82-.61.82a.88.88,0,0,1-.82-.82V764c0-.4.41-.61.82-.61a.54.54,0,0,1,.61.61Zm-.2-3.47c-.21.2-.21.2-.41.2a.74.74,0,0,1-.61-.2s-1.43-2.66-7.15-2.66a92.1,92.1,0,0,1-10.62-.61c-2.86-.2-5.31-.41-7.15-.41-4.09,0-7.56-.81-7.56-7.15V673.35c0-.41.2-.62.41-.62H224a.55.55,0,0,1,.62.62v78.22c0,6.34-3.68,7.15-7.76,7.15-1.64,0-4.29.21-7,.41a95.71,95.71,0,0,1-10.82.61C193.37,759.74,191.94,762.4,191.94,762.4Zm1.63,3.27a.65.65,0,0,1-.61.61c-.21,0-.41-.2-.41-.61v-1.43c0-.41.2-.61.41-.61a.65.65,0,0,1,.61.61Zm2.66-2.86a1.09,1.09,0,0,1-.41.82l-1.64.61a.44.44,0,0,1-.4-.41v-.61a1.54,1.54,0,0,1,.4-.82l1.64-.41c.2-.2.41,0,.41.41Zm2,.41h-1.64c-.2.2-.4-.21-.4-.41l.2-.61c0-.21.41-.41.61-.62h1.64c.41,0,.61.21.41.41v.61C198.88,762.81,198.47,763.22,198.27,763.22Zm2.65-.21h-1.63c-.2,0-.41-.2-.2-.41l.2-.61c0-.2.41-.41.61-.41h1.84c.21,0,.41.21.21.41l-.21.61C201.74,762.81,201.33,763,200.92,763Zm2.86,0h-1.63c-.2,0-.41-.2-.2-.41V762a1.56,1.56,0,0,1,.81-.41h1.64c.41,0,.41.21.41.41l-.21.61A1,1,0,0,1,203.78,763Zm2.86,0H205c-.41,0-.41-.2-.41-.41l.21-.61a1.05,1.05,0,0,1,.81-.41h1.64a.44.44,0,0,1,.4.41l-.2.61A1.49,1.49,0,0,1,206.64,763Zm2.86,0h-1.63c-.41,0-.61-.2-.41-.41l.2-.61a1.09,1.09,0,0,1,.82-.41h1.64c.2,0,.4.21.2.41l-.2.61C210.12,762.81,209.71,763,209.5,763Zm11.85-1.43c0,.21-.41.41-.61.41H219.1c-.41,0-.41-.2-.41-.41v.21a1.08,1.08,0,0,1-.81.61h-1.64a.44.44,0,0,1-.41-.41v.21c-.2.2-.4.61-.81.61h-1.64a.44.44,0,0,1-.4-.41v.2c0,.21-.41.41-.82.41h-1.64c-.2,0-.4-.2-.2-.41l.2-.61c0-.2.41-.41.62-.41h1.63c.41,0,.41,0,.41.41v-.2a1.09,1.09,0,0,1,.82-.62h1.63a.45.45,0,0,1,.41.41v-.2c.2-.41.41-.61.82-.61h1.63c.2,0,.41.2.2.4l.21-.2c0-.2.41-.41.82-.41h1a1.56,1.56,0,0,1,.81.41Zm1.84-.2a.43.43,0,0,1-.82,0l-1-1a.43.43,0,0,1,0-.82.64.64,0,0,1,.82,0l1,1A.64.64,0,0,1,223.19,761.38Zm1.22-.82a.89.89,0,0,1-1,0l-1.22-1.22a.91.91,0,0,1,0-1,.92.92,0,0,1,1,0l1.22,1.23A.89.89,0,0,1,224.41,760.56Zm1.23-1a.58.58,0,0,1-1,0l-1.43-1.43a.72.72,0,1,1,1-1l1.43,1.43A.58.58,0,0,1,225.64,759.54Zm1-1.23a.89.89,0,0,1-1,0l-1.23-1.22a.92.92,0,0,1,0-1,.89.89,0,0,1,1,0l1.23,1.22A.93.93,0,0,1,226.66,758.31Zm.82-1.22a.64.64,0,0,1-.82,0l-1-1a.61.61,0,0,1,0-.82.43.43,0,0,1,.82,0l1,1A.43.43,0,0,1,227.48,757.09Zm.81-5.52a.43.43,0,0,1-.4.41.44.44,0,0,1,.4.41l-.4,1.64c0,.4-.21.61-.62.81h-.41c-.4.21-.61,0-.61-.41l.41-1.63a.44.44,0,0,1,.41-.41c-.41-.2-.41-.2-.41-.41l.2-1.84c.21-.2.41-.61.82-.61h.41c.41-.2.61,0,.61.41Zm.41-5.92c0,.41-.2.61-.61.82.41-.21.61,0,.61.41v1.63a1.11,1.11,0,0,1-.61.82l-.41.2c-.41,0-.61,0-.61-.41v-1.63c0-.41.2-.61.61-.82-.41.21-.61,0-.61-.41v-1.63a1.11,1.11,0,0,1,.61-.82l.41-.2c.41,0,.61,0,.61.41Zm0-2.86c0,.41-.2.61-.61.82l-.41.2c-.41,0-.61,0-.61-.41v-1.63c0-.41.2-.61.61-.82l.41-.2c.41,0,.61,0,.61.41Zm0-2.86a1.09,1.09,0,0,1-.61.82l-.41.2c-.41,0-.61,0-.61-.41v-1.63c0-.41.2-.61.61-.82l.41-.2c.41-.2.61,0,.61.41Zm0-2.86a1.07,1.07,0,0,1-.61.82l-.41.2c-.41,0-.61-.2-.61-.4v-1.64c0-.41.2-.82.61-.82l.41-.2c.41-.2.61,0,.61.41Zm0-2.86a.65.65,0,0,1-.61.62l-.41.2c-.41.2-.61,0-.61-.2v-1.64c0-.41.2-.82.61-.82l.41-.2c.41-.2.61,0,.61.2Zm0-2.86a.65.65,0,0,1-.61.62l-.41.2c-.41.2-.61,0-.61-.2v-1.84a.65.65,0,0,1,.61-.62l.41-.2c.41-.2.61,0,.61.2Zm0-3.06c0,.41-.2.82-.61.82l-.41.2c-.41.2-.61,0-.61-.2v-1.84a1.09,1.09,0,0,1,.61-.82l.41-.2c.41,0,.61.2.61.41Zm0-2.86c0,.41-.2.61-.61.82l-.41.2c-.41.21-.61,0-.61-.41v-1.63a1.09,1.09,0,0,1,.61-.82l.41-.2c.41,0,.61,0,.61.41Zm0-2.86c0,.41-.2.61-.61.82l-.41.2c-.41.21-.61,0-.61-.41v-1.63c0-.41.2-.61.61-.82l.41-.2c.41,0,.61,0,.61.41Zm-.2-2.45-1.23.82c-.41,0-.61,0-.61-.41s.2-.61.61-.82l1.23-.61c.2-.21.41,0,.41.2C228.91,719.71,228.7,720.12,228.5,720.12Zm-30-50.86v0Zm-34.31,91.91v0Zm51.88.41-.21.21v.2l.21-.2Zm-46.37.41h0l.21.41v-.2Zm-2.65-.41v0Zm51.67-.41v0Zm32.48-61.48c-.2.21.2.41.41.62.41,0,.82-.21.82-.41a.65.65,0,0,0-.62-.61C251.37,699.29,251.17,699.49,251.17,699.69Zm7.76-15.93c-.61-1.43-1.63-.61-1.63-.61a1.39,1.39,0,0,1,1.43-2c-.21-1-1.43-1.23-2.45-.82a2.56,2.56,0,0,0-1,2c-.62-1.43-3.07-1.43-4.09,0a2.84,2.84,0,0,0,0,3.07,1.11,1.11,0,0,1,1-1,.83.83,0,0,0,.61,1c.21-1.23,1.64-1.43,2.46-.41s.4,2.24-.41,1.84a1.53,1.53,0,0,1-.82-1.64,1.34,1.34,0,0,0-.61,1.43,1.71,1.71,0,0,0-2,1.23,2,2,0,0,0,.62,2.45,2.29,2.29,0,0,1,1-1.84c1.63-.82,2.45,1,1.22.82a1.37,1.37,0,0,0-1.43,1c1-.21,1.43.82.21,2.25-1.23,1.22-1.84,3.67-.82,4.08,2,.82,5.11-3.06,5.72-7.76.41-3.07-.82-3.88-.61-4.49C257.3,683.15,258.93,683.76,258.93,683.76Zm-8,14.5c-.21.41.2,1,.81,1s1.23-.21,1.23-.62a1.36,1.36,0,0,0-.82-1C251.58,697.65,251,697.86,251,698.26Zm.61-1.22a.65.65,0,0,0,.61.61c.21,0,.61,0,.61-.41,0-.2-.2-.41-.61-.61C252,696.63,251.58,696.83,251.58,697Z" transform="translate(-122.56 -600.12)"/></g><path class="cls-3" d="M543.05,793.45h0a1.76,1.76,0,0,1-1.64-1.64V624.32a1.76,1.76,0,0,1,1.64-1.63,1.61,1.61,0,0,1,1.63,1.63V791.81A1.61,1.61,0,0,1,543.05,793.45Z" transform="translate(-122.56 -600.12)"/><path class="cls-3" d="M610.65,666.81a60.51,60.51,0,0,1,14.1,2v11h-6.13c-1-2.86-3.06-5.31-8.37-5.31-5.93,0-10.22,4.7-10.22,14.91s4.5,14.91,10.62,14.91c5.32,0,7-2.45,8-5.31h6.13v10.83a52.17,52.17,0,0,1-14.1,2c-13.68,0-21.44-7.15-21.44-22.47S597,666.81,610.65,666.81Z" transform="translate(-122.56 -600.12)"/><path class="cls-3" d="M643.13,674.16H637l1.64-6.53h20.42l11.44,34.92c.41,1,.82,2.05,2.25,2.05H675v6.53h-19.2V704.6h3.68L657,695.81H644.77l-2.66,8.79H646v6.53H629V704.6h2.65c1.43,0,1.84-1,2.25-2.05Zm8.17,1.43h-.61l-4.29,14.5h9.19Z" transform="translate(-122.56 -600.12)"/><path class="cls-3" d="M737.9,711.13H720.13V704.6h3.27V678.86l-11.64,32.27h-8.58l-11.85-32.27V704.6h3.27v6.53H678.47V704.6h2.24c1.23,0,1.64-.62,1.64-1.64V675.8c0-1-.41-1.64-1.43-1.64h-2.45v-6.53h20L708.9,697l10.42-29.41H737.9v6.53h-2.24c-1,0-1.43.62-1.43,1.64V703c0,1,.41,1.64,1.63,1.64h2Z" transform="translate(-122.56 -600.12)"/><path class="cls-3" d="M767.32,667.63c9.39,0,14.5,6.33,14.5,14.09,0,8.37-5.72,14.3-14.71,14.3h-7.76v8.58h4.09v6.53h-18.8V704.6h2.25c1.23,0,1.64-.62,1.64-1.64V675.8c0-1-.41-1.64-1.43-1.64h-2.46v-6.53Zm-8,7.76v13.07h4.9c5.31,0,6.54-3.27,6.54-6.74,0-3.27-1.64-6.33-6.54-6.33Z" transform="translate(-122.56 -600.12)"/><path class="cls-3" d="M789.38,674.16h-2.25v-6.53h33.7v12.66h-5.51l-2.45-4.9H801.63v10h12.66v6.53H801.63v11.64h11.85l2-5.1H821v12.66H787.13V704.6h2c1.43,0,1.64-.62,1.64-1.64V675.8C790.81,674.78,790.6,674.16,789.38,674.16Z" transform="translate(-122.56 -600.12)"/><path class="cls-3" d="M849,666.81a60.43,60.43,0,0,1,14.09,2v11H857c-1-2.86-3.06-5.31-8.37-5.31-5.72,0-10,4.7-10,14.91s4.29,14.91,10.62,14.91c5.31,0,6.74-2.45,7.76-5.31h6.13v10.83A52.16,52.16,0,0,1,849,712c-13.69,0-21.45-7.15-21.45-22.47S835.33,666.81,849,666.81Z" transform="translate(-122.56 -600.12)"/><path class="cls-3" d="M915.4,704.6v6.53H897V704.6h3.88V693H884.35V704.6H888v6.53H869.65V704.6h2.24c1.23,0,1.64-.62,1.64-1.64V675.8c0-1-.41-1.64-1.43-1.64h-2.45v-6.53H888v6.53h-3.68v11H900.9v-11H897v-6.53H915.4v6.53h-2.25c-1,0-1.43.62-1.43,1.64V703c0,1,.41,1.64,1.64,1.64Z" transform="translate(-122.56 -600.12)"/><path class="cls-3" d="M924.59,674.16h-2.45v-6.53h33.91v12.66h-5.72l-2.25-4.9H936.85v10h12.66v6.53H936.85v11.64h11.84l1.84-5.1h5.72v12.66H922.14V704.6h2.25c1.22,0,1.63-.62,1.63-1.64V675.8C926,674.78,925.61,674.16,924.59,674.16Z" transform="translate(-122.56 -600.12)"/><path class="cls-3" d="M598,737.89c0,5.11,2.45,7.56,5.92,7.56a10,10,0,0,0,3.27-.62v-4.29H603.3v-3.47h9v10.62a29.28,29.28,0,0,1-9,1.64c-7.15,0-10.82-4.09-10.82-11.64,0-7.36,4.49-11.44,11.84-11.44a23.57,23.57,0,0,1,7.36,1v5.51h-3.27c-.41-1.43-1.64-2.65-4.5-2.65C600.65,730.13,598,732,598,737.89Z" transform="translate(-122.56 -600.12)"/><path class="cls-3" d="M627.4,726.25c6.54,0,10.62,3.88,10.62,11.44s-4.08,11.64-10.62,11.64-10.82-4.09-10.82-11.64S620.87,726.25,627.4,726.25Zm0,19.2c2.86,0,4.91-1.84,4.91-7.76,0-5.72-2-7.56-4.91-7.56-3.06,0-5.1,1.84-5.1,7.56C622.3,743.61,624.34,745.45,627.4,745.45Z" transform="translate(-122.56 -600.12)"/><path class="cls-3" d="M641.91,745.45h1c.61,0,.81-.21.81-.82V730.74a.75.75,0,0,0-.81-.82h-1v-3.47h10.82c4.9,0,7.35,2.86,7.35,6.13a5.53,5.53,0,0,1-2.24,4.7,5.19,5.19,0,0,1,3.06,4.9c0,4.29-3.47,6.74-8.37,6.74H641.91Zm7.35-15.12v5.52h2.86c1.84,0,2.45-1.43,2.45-2.86a2.53,2.53,0,0,0-2.86-2.66Zm0,8.78V745h2.45c2.66,0,3.47-1.43,3.47-3.07a2.67,2.67,0,0,0-2.86-2.86Z" transform="translate(-122.56 -600.12)"/><path class="cls-3" d="M666.21,729.92H665v-3.47h9.39v3.47h-1.22c-.41,0-.62.21-.82.62v14.29a.94.94,0,0,0,1,.62h1v3.47H665v-3.47h1c.81,0,1-.21,1-.82V730.74A.75.75,0,0,0,666.21,729.92Z" transform="translate(-122.56 -600.12)"/><path class="cls-3" d="M679.9,729.92h-1.23v-3.47h17.16V733H693l-1-2.45H686v5.1h6.54v3.47H686V745h6.13l1-2.66H696v6.54H678.67v-3.47h1c.62,0,.82-.21.82-.82V730.74C680.51,730.33,680.31,729.92,679.9,729.92Z" transform="translate(-122.56 -600.12)"/><path class="cls-3" d="M700.32,745.45h1c.82,0,1-.21,1-.82V730.74a.75.75,0,0,0-.81-.82h-1.23v-3.47h11c5.72,0,8.17,2.86,8.17,6.54,0,3.06-1.63,5.1-4.29,5.51,3.07,1,3.47,2.86,3.47,4.5v.81c0,1,.41,1.64,2,1.64v3.47c-.41,0-1.23.2-2.45.2-3.07,0-5.11-1-5.11-5.1v-1.23a2.45,2.45,0,0,0-2.66-2.65h-2.86v5.31h1.84v3.47h-9.19Zm7.35-8.58h3.07c2.86,0,3.27-2,3.27-3.47,0-1.23-.62-2.86-3.27-2.86h-3.07Z" transform="translate(-122.56 -600.12)"/><path class="cls-3" d="M745.67,748.92h-5.93l-9-14.5v11h2v3.47h-8.38v-3.47h1c.82,0,1-.21,1-.82V730.74a.75.75,0,0,0-.82-.82h-1.23v-3.47h8l8.78,14.71V729.92h-1.84v-3.47h8.17v3.47h-1a.75.75,0,0,0-.81.82Z" transform="translate(-122.56 -600.12)"/><path class="cls-3" d="M761.8,726.25c6.54,0,10.62,3.88,10.62,11.44s-4.08,11.64-10.62,11.64-10.62-4.09-10.62-11.64S755.27,726.25,761.8,726.25Zm0,19.2c2.86,0,5.11-1.84,5.11-7.76,0-5.72-2.25-7.56-5.11-7.56s-5.1,1.84-5.1,7.56C756.7,743.61,758.94,745.45,761.8,745.45Z" transform="translate(-122.56 -600.12)"/><path class="cls-3" d="M806.33,737.69c0,7.35-4.29,11.23-10.42,11.23H785.09v-3.47h1c.81,0,.81-.21.81-.82V730.74c0-.41,0-.82-.61-.82h-1.22v-3.47h10.82C802,726.45,806.33,730.13,806.33,737.69Zm-11.23-7.15h-2.66V745h2.66c4.69,0,5.51-3.88,5.51-7.35C800.61,734,799.79,730.54,795.1,730.54Z" transform="translate(-122.56 -600.12)"/><path class="cls-3" d="M811.23,729.92h-1v-3.47h17.16V733h-2.86l-1-2.45h-5.93v5.1h6.54v3.47h-6.54V745h6.13l1-2.66h2.86v6.54H810.21v-3.47h1c.61,0,.82-.21.82-.82V730.74A.75.75,0,0,0,811.23,729.92Z" transform="translate(-122.56 -600.12)"/><path class="cls-3" d="M853.51,745.45h1v3.47h-9.39v-3.47h1c.61,0,.82-.21.82-.82V730.54H843.3l-.61,3.47h-3.07v-7.56h20.43V734H857l-.61-3.47h-3.88v14.29C852.49,745.24,852.69,745.45,853.51,745.45Z" transform="translate(-122.56 -600.12)"/><path class="cls-3" d="M873.94,726.25c6.53,0,10.62,3.88,10.62,11.44s-4.09,11.64-10.62,11.64-10.62-4.09-10.62-11.64S867.4,726.25,873.94,726.25Zm0,19.2c3.06,0,5.1-1.84,5.1-7.76,0-5.72-2-7.56-5.1-7.56-2.86,0-5.11,1.84-5.11,7.56C868.83,743.61,871.08,745.45,873.94,745.45Z" transform="translate(-122.56 -600.12)"/><path class="cls-3" d="M909.68,737.69c0,7.35-4.29,11.23-10.42,11.23H888.44v-3.47h1c.82,0,1-.21,1-.82V730.74a.75.75,0,0,0-.82-.82h-1.22v-3.47h10.82C905.39,726.45,909.68,730.13,909.68,737.69Zm-11.23-7.15H896V745h2.45c4.69,0,5.72-3.88,5.72-7.35C904.17,734,903.14,730.54,898.45,730.54Z" transform="translate(-122.56 -600.12)"/><path class="cls-3" d="M924.18,726.25c6.74,0,10.83,3.88,10.83,11.44s-4.09,11.64-10.83,11.64c-6.53,0-10.62-4.09-10.62-11.64S917.65,726.25,924.18,726.25Zm0,19.2c3.07,0,5.11-1.84,5.11-7.76,0-5.72-2-7.56-5.11-7.56-2.86,0-4.9,1.84-4.9,7.56C919.28,743.61,921.32,745.45,924.18,745.45Z" transform="translate(-122.56 -600.12)"/><path class="cls-3" d="M950.53,742.59c0-4.5-11.64-1.64-11.64-9.81,0-4.9,4.49-6.53,9.19-6.53a30.36,30.36,0,0,1,7.15,1V733H952c0-1.84-2-3.27-4.08-3.27s-3.27,1-3.27,2.45c0,3.88,11.64,1.43,11.64,9.6,0,5.51-4.49,7.56-9.19,7.56a22.45,22.45,0,0,1-7.76-1.43v-5.72h3.27c.2,2,1.83,3.27,4.49,3.27C949.1,745.45,950.53,744.22,950.53,742.59Z" transform="translate(-122.56 -600.12)"/><polygon class="cls-3" points="346.55 179.64 356.76 173.72 356.76 117.75 346.55 117.75 346.55 179.64"/><path class="cls-3" d="M493.41,717.87h-6.53v51.47A20.08,20.08,0,0,0,497.09,752V721.34A3.49,3.49,0,0,0,493.41,717.87Z" transform="translate(-122.56 -600.12)"/><g class="cls-4"><polygon class="cls-3" points="328.78 189.85 338.79 183.93 338.79 117.75 328.78 117.75 328.78 189.85"/></g><g class="cls-5"><path class="cls-3" d="M486.88,698.26h6.53a3.49,3.49,0,0,0,3.68-3.47V664.15a19.85,19.85,0,0,0-10.21-17.36L454.4,628l-86,49.63v-9l78.23-45.14-10-5.93L368.41,657v-9l60.46-34.72-10.21-5.93-50.25,29v-8.79l42.69-24.71a19.9,19.9,0,0,0-20.22,0L358.2,621.67v99.27l-7.56-4.5V626.16l-10.21,5.72v78.84l-7.76-4.49V636.38l-10,5.92v58L314.9,696V646.79a19.67,19.67,0,0,0-10,17.36v37.59l85.78,49.63-7.55,4.49-78.23-45.14v11.65l68,39.42-7.55,4.29-60.46-34.73V743l50.25,29-8,4.7-42.28-24.31a19.65,19.65,0,0,0,10,17.36l32.27,18.59,86.19-49.84v9l-78.43,45.14,10.21,5.92,68.22-39.42v8.78L372.9,803.05l10,5.71,50.45-29v8.78l-42.69,24.72h.21a19.53,19.53,0,0,0,20,0l32.68-18.79v-76.6H437a3.5,3.5,0,0,0-3.68,3.47v5.52l-32.47,18.79-32.48-18.79V689.28l32.48-18.79,32.47,18.79v5.51a3.5,3.5,0,0,0,3.68,3.47h6.54V686.62a5.17,5.17,0,0,0-2.66-4.7L411.1,664.56l7.56-4.29h.2l29.62,17.16a5.61,5.61,0,0,1,2.86,4.7v16.13h10V676.2a5.65,5.65,0,0,0-2.66-4.69l-29.82-17.16,7.76-4.49,29.82,17.36a5.15,5.15,0,0,1,2.66,4.7v26.34h10.21V666a5.6,5.6,0,0,0-2.86-4.7l-29.82-17.15,7.76-4.5,27.78,16.14a9.27,9.27,0,0,1,4.7,8Z" transform="translate(-122.56 -600.12)"/></g></svg>