<?xml version="1.0" encoding="utf-8"?>
<!-- Generator: Adobe Illustrator 26.0.0, SVG Export Plug-In . SVG Version: 6.00 Build 0)  -->
<svg version="1.1" id="Layer_1" xmlns="http://www.w3.org/2000/svg" xmlns:xlink="http://www.w3.org/1999/xlink" x="0px" y="0px"
	 viewBox="0 0 1080 1080" style="enable-background:new 0 0 1080 1080;" xml:space="preserve">
<style type="text/css">
	.st0{fill:#BAA88D;}
	.st1{fill:#9F2241;}
</style>
<g>
	<g>
		<g>
			<polygon class="st0" points="699.7,736.7 306.5,963.8 357.5,993 699.4,795.5 			"/>
			<polygon class="st1" points="877.9,898.4 928.7,869.1 928.7,588.7 877.9,588.7 			"/>
			<g>
				<path class="st1" d="M1000,588.7h-33.1V847l0.2-0.1c31.3-18,50.6-51.4,50.6-87.5V606.4C1017.8,596.6,1009.8,588.7,1000,588.7z"
					/>
			</g>
			<polygon class="st1" points="788.6,950 839.4,920.6 839.4,588.7 788.6,588.7 			"/>
			<path class="st1" d="M699.4,1001.5l50.8-29.3V588.7h-33.1c-9.8,0-17.7,7.9-17.7,17.7L699.4,1001.5L699.4,1001.5z"/>
			<polygon class="st1" points="374,239.8 676.5,65.1 625.7,35.8 373.9,181.2 373.9,239.8 			"/>
			<polygon class="st1" points="374,342.8 765.8,116.6 715,87.3 373.9,284.2 373.9,342.9 			"/>
			<g>
				<path class="st1" d="M587.2,13.5c-31.3-18-69.9-18-101.2,0L373.2,78.7l0.7-0.4V137L587.4,13.7L587.2,13.5z"/>
				<polygon class="st0" points="323.1,107.6 323.1,604.5 323.1,604.5 373.9,633.9 373.9,78.3 				"/>
			</g>
			<polygon class="st1" points="855,168.1 804.2,138.8 373.9,387.3 373.9,445.9 374,445.9 			"/>
			<path class="st0" d="M536.8,352.1l162.6,93.9v27.7c0,9.8,7.9,17.7,17.7,17.7h33.1v-45.4v-13.6c0-9.7-5.2-18.7-13.6-23.6
				l-149.1-86.1L536.6,352L536.8,352.1z"/>
			<path class="st0" d="M626.1,300.5l148.9,86c8.4,4.9,13.6,13.9,13.6,23.6v81.2h50.8V380.8c0-9.7-5.2-18.7-13.6-23.6l-149.1-86.1
				l-50.8,29.3L626.1,300.5z"/>
			<path class="st0" d="M715.1,248.9l0.2,0.1l148.9,86c8.4,4.9,13.6,13.9,13.6,23.6v132.7h50.8v-162c0-9.7-5.2-18.7-13.6-23.6
				l-149.1-86.1L715.1,248.9z"/>
			<g>
				<path class="st0" d="M485.5,1066.3l0.6,0.3c31.2,17.9,69.6,17.8,100.8-0.2l112.6-65v0l0-58.7L485.5,1066.3z"/>
			</g>
			<polygon class="st0" points="699.4,840 699.4,839.9 396,1015.1 447,1044.3 699.4,898.6 			"/>
			<g>
				<polygon class="st1" points="358.2,830.9 55.5,656.1 55.5,714.8 307.4,860.2 				"/>
				<polygon class="st1" points="55.5,450 55.5,508.7 485.9,757.2 536.6,727.8 				"/>
				<path class="st1" d="M396.6,808.7L396.6,808.7L396.6,808.7z"/>
				<polygon class="st1" points="55.5,553.1 55.5,611.8 396.7,808.7 447.4,779.3 				"/>
				<polygon class="st0" points="447.4,779.3 447.4,779.3 216.9,912.4 267.9,941.6 699.4,692.3 699.4,634 699.4,633.8 				"/>
			</g>
			<polygon class="st0" points="195.4,530.8 195.4,181.4 144.6,210.7 144.6,501.5 144.7,501.5 			"/>
			<polygon class="st0" points="284.6,582.3 284.6,129.8 233.8,159.2 233.8,553 233.9,553 			"/>
			<path class="st1" d="M55.5,761.4L55.5,761.4c0,36.2,19.4,69.7,50.8,87.7l110.6,63.3l50.9-29.4L55.5,761.4z"/>
			<path class="st0" d="M106.1,232.9c-31.3,18.1-50.5,51.4-50.5,87.5V450l0.1,0.1l50.7,29.2V232.8L106.1,232.9z"/>
			<path class="st0" d="M855,168.1l-50.8,29.3l0.2,0.1L943.6,278c14.5,8.3,23.4,23.8,23.4,40.5v172.9h33.1c9.8,0,17.7-7.9,17.7-17.7
				V320.5c0-36.1-19.3-69.5-50.5-87.5L855,168.1z"/>
		</g>
	</g>
</g>
</svg>
