<?xml version="1.0" encoding="utf-8"?>
<!-- Generator: Adobe Illustrator 26.0.0, SVG Export Plug-In . SVG Version: 6.00 Build 0)  -->
<svg version="1.1" id="Layer_1" xmlns="http://www.w3.org/2000/svg" xmlns:xlink="http://www.w3.org/1999/xlink" x="0px" y="0px"
	 viewBox="0 0 1080 1080" style="enable-background:new 0 0 1080 1080;" xml:space="preserve">
<style type="text/css">
	.st0{fill:#54555A;}
	.st1{clip-path:url(#SVGID_00000157299623186012647640000001025920424113167747_);fill:#54555A;}
</style>
<polygon class="st0" points="818.26,791.02 859.53,766.23 859.53,537.33 818.26,537.33 "/>
<path class="st0" d="M918.25,537.33h-27.82v211.38h1.03c24.72-15.45,41.27-42.3,41.27-72.18V551.75
	C932.74,544.54,925.46,537.33,918.25,537.33z"/>
<polygon class="st0" points="745.05,832.22 786.32,808.53 786.32,537.33 745.05,537.33 "/>
<g>
	<defs>
		<rect id="SVGID_1_" x="146.89" y="57" width="787.07" height="887"/>
	</defs>
	<clipPath id="SVGID_00000042721207166914650740000010548319207772629150_">
		<use xlink:href="#SVGID_1_"  style="overflow:visible;"/>
	</clipPath>
	<path style="clip-path:url(#SVGID_00000042721207166914650740000010548319207772629150_);fill:#54555A;" d="M890.44,457.94h27.82
		c7.21,0,14.49-6.25,14.49-14.49V318.67c0-28.85-16.55-56.66-41.27-71.15l-132.96-76.3L406.95,373.33v-36.06l319.55-184.6
		l-41.21-23.69L406.95,289.82v-37.15l247.38-142.3l-42.24-23.69l-205.14,118.6v-36.12l174.23-99.99v-1.03
		c-25.82-14.49-56.73-14.49-82.48,0l-133.02,77.33v405.25l-30.91-18.54v-369.2l-42.3,24.72v320.71l-30.91-17.51V205.28l-41.21,23.69
		v237.2l-32-17.58V247.52c-24.72,14.49-41.21,42.3-41.21,71.15v153.69L498.71,675.5l-32,17.51l-319.55-184.6v48.48l278.35,160.9
		l-30.91,17.51l-247.44-142.3v47.39l206.17,118.6l-32.97,18.54l-173.2-98.96c0,29.88,16.48,56.73,41.21,72.18l131.99,75.27
		l352.59-204.17v37.15L352.29,843.56l41.27,23.76l279.38-160.9v36.12L425.5,885.86l41.21,23.69l206.23-118.54v36.06L497.68,927.13
		l1.03,1.03c25.75,14.42,56.66,14.42,82.48-1.03l132.96-76.3v-313.5h-26.79c-8.24,0-14.42,7.21-14.42,14.42v22.66l-133.02,77.39
		l-132.96-77.39v-152.6v-1.03l132.96-76.3l133.02,77.33v21.63c0,8.24,6.18,14.49,14.42,14.49h26.79v-36.12v-11.33
		c0-8.24-4.12-15.45-11.33-19.57l-121.63-70.18l31.94-18.54v1.03l120.6,70.12c7.21,3.09,11.33,11.33,11.33,18.61v66h41.27v-89.76
		c0-8.24-4.12-15.45-10.3-19.57l-121.69-70.12l30.97-17.51l121.63,70.12c7.21,4.12,11.33,11.33,11.33,18.54v108.3h41.27V325.95
		c0-7.28-4.12-15.52-11.33-18.61l-121.69-71.15l32-17.51l113.39,66c11.33,6.18,18.54,18.54,18.54,32.97V457.94z"/>
</g>
</svg>
