<svg xmlns="http://www.w3.org/2000/svg" viewBox="0 0 2000 800"><defs><style>.cls-1{fill:#b23855;}.cls-2{fill:#fff;}.cls-3{fill:#b06e81;}.cls-4{fill:#53b2b6;}.cls-5{fill:#936175;}.cls-6{fill:#8dcccf;}</style></defs><g id="Layer_2" data-name="Layer 2"><g id="Capa_2" data-name="Capa 2"><rect class="cls-1" width="2000" height="800"/><polygon class="cls-1" points="1382.21 414.56 1369.99 400 1382.21 385.44 1369.99 400 1382.21 414.56"/><polygon class="cls-2" points="1146.62 400 914.85 123.79 810.98 0 0 0 0 800 810.98 800 914.85 676.21 1146.62 400"/><polygon class="cls-3" points="1258.31 266.89 1378.38 123.79 1482.25 0 1034.36 0 1138.23 123.79 1258.31 266.89"/><polygon class="cls-3" points="1258.31 533.11 1138.23 676.21 1034.36 800 1482.25 800 1378.38 676.21 1258.31 533.11"/><polygon class="cls-4" points="1382.21 414.56 1705.63 800 1601.76 676.21 1382.21 414.56"/><polygon class="cls-5" points="1369.99 400 1258.31 533.11 1378.38 676.21 1482.25 800 1705.63 800 1382.21 414.56 1369.99 400"/><polygon class="cls-6" points="1146.62 400 1258.31 266.89 1138.23 123.79 1034.36 0 810.98 0 914.85 123.79 1146.62 400"/><polygon class="cls-4" points="1601.76 123.79 1705.63 0 1382.21 385.44 1601.76 123.79"/><polygon class="cls-6" points="1258.31 533.11 1146.62 400 914.85 676.21 810.98 800 1034.36 800 1138.23 676.21 1258.31 533.11"/><polygon class="cls-5" points="1258.31 266.89 1369.99 400 1382.21 385.44 1705.63 0 1482.25 0 1378.38 123.79 1258.31 266.89"/><polygon class="cls-4" points="1146.62 400 1258.31 533.11 1369.99 400 1258.31 266.89 1146.62 400"/></g></g></svg>