<svg xmlns="http://www.w3.org/2000/svg" xmlns:xlink="http://www.w3.org/1999/xlink" viewBox="0 0 2000 800"><defs><style>.cls-1{fill:none;}.cls-2{clip-path:url(#clip-path);}.cls-3{fill:#7e8182;}.cls-4{fill:#fff;}.cls-5{opacity:0.12;fill:url(#Unnamed_Pattern_5);}</style><clipPath id="clip-path"><rect class="cls-1" width="42.52" height="63.78"/></clipPath><pattern id="Unnamed_Pattern_5" data-name="Unnamed Pattern 5" width="42.52" height="63.78" patternTransform="translate(3764.53 -5460.17) scale(8)" patternUnits="userSpaceOnUse" viewBox="0 0 42.52 63.78"><rect class="cls-1" width="42.52" height="63.78"/><rect class="cls-1" width="42.52" height="63.78"/><g class="cls-2"><path class="cls-3" d="M55.2-1.43h1a.52.52,0,0,0,.52-.52V-6.47A3,3,0,0,0,55.23-9L50.4-11.82,37.72-4.5V-5.81h0l11.54-6.66-1.5-.86-10,5.8V-8.84h0L46.62-14l-1.5-.86L37.7-10.57v-1.3L44-15.5h0a3,3,0,0,0-3,0l-4.8,2.77V1.9l-1.13-.65V-12.08l-1.47.86V.38L32.47-.27V-10.56L31-9.7v8.57l-1.13-.65V-9h0a3,3,0,0,0-1.48,2.57V-.92L41,6.4l-1.13.65L28.35.39V2.12l10,5.8-1.13.65L28.31,3.42V5.15l7.41,4.28-1.16.68L28.32,6.53a3,3,0,0,0,1.5,2.59l4.78,2.66L47.31,4.44V5.78l-11.57,6.7,1.5.87L47.31,7.53V8.84L38.38,14l1.5.86,7.43-4.29v1.3L41,15.51h0a3,3,0,0,0,3,0l3.31-1.91,1.5-.87V1.44h-1a.52.52,0,0,0-.53.51h0v.82L42.49,5.54,37.72,2.78V-2.76h0l4.79-2.77L47.3-2.76v.82a.53.53,0,0,0,.53.52h1v-1.8a.81.81,0,0,0-.4-.7L44-6.4l1.13-.66h0l4.39,2.53a.8.8,0,0,1,.4.7v2.4h1.5V-4.69a.78.78,0,0,0-.4-.69l-4.4-2.54,1.14-.65L52.15-6a.81.81,0,0,1,.4.7v3.91h1.5V-6.22a.83.83,0,0,0-.4-.69l-4.4-2.54,1.13-.65,4.11,2.37a1.39,1.39,0,0,1,.69,1.19Z"/><polygon class="cls-3" points="10.05 10.56 11.55 9.7 11.55 1.44 10.05 1.44 10.05 10.56"/><path class="cls-3" d="M13.65,1.44h-1V9.05h0a3,3,0,0,0,1.49-2.58V2a.52.52,0,0,0-.52-.52h0"/><polygon class="cls-3" points="7.42 12.08 8.92 11.22 8.92 1.44 7.42 1.44 7.42 12.08"/><path class="cls-3" d="M12.68-1.43h1a.52.52,0,0,0,.52-.52V-6.47A3,3,0,0,0,12.71-9L7.88-11.82-4.8-4.5V-5.81h0L6.75-12.47l-1.5-.86-10,5.8V-8.84h0L4.16-14l-1.5-.86L-4.8-10.57v-1.3L1.5-15.5h0a3,3,0,0,0-3,0l-4.8,2.77V1.9l-1.13-.65V-12.08l-1.49.86V.38L-10-.27V-10.56l-1.5.86v8.57l-1.13-.65V-9h0a3,3,0,0,0-1.48,2.57V-.92L-1.5,6.4l-1.13.65L-14.17.39V2.12l10,5.8-1.13.65-8.91-5.15V5.15L-6.8,9.43-8,10.11-14.2,6.53a3,3,0,0,0,1.5,2.59l4.78,2.66L4.79,4.49V5.78l-11.57,6.7,1.5.87L4.79,7.53V8.84L-4.14,14l1.5.86,7.43-4.29v1.3l-6.3,3.64h0a3,3,0,0,0,3,0L4.8,13.6l1.5-.87V1.44h-1A.52.52,0,0,0,4.77,2h0v.82L0,5.53-4.8,2.78V-2.76h0L0-5.54,4.79-2.77v.82a.53.53,0,0,0,.53.52h1V-3.22a.81.81,0,0,0-.4-.7L1.5-6.4l1.13-.66h0L7-4.52a.8.8,0,0,1,.4.7v2.39H8.9V-4.69a.78.78,0,0,0-.4-.69L4.12-7.92l1.14-.65L9.65-6a.81.81,0,0,1,.4.7v3.91h1.5V-6.22a.83.83,0,0,0-.4-.69L6.75-9.45l1.13-.65L12-7.72a1.39,1.39,0,0,1,.69,1.19Z"/><polygon class="cls-3" points="31.31 42.45 32.81 41.59 32.81 33.33 31.31 33.33 31.31 42.45"/><path class="cls-3" d="M34.91,33.33h-1v7.61h0a3,3,0,0,0,1.49-2.58v-4.5a.52.52,0,0,0-.52-.52h0"/><polygon class="cls-3" points="28.68 43.97 30.18 43.1 30.18 33.33 28.68 33.33 28.68 43.97"/><path class="cls-3" d="M33.94,30.46h1a.52.52,0,0,0,.52-.52h0V25.42A3,3,0,0,0,34,22.85l-4.8-2.78L16.46,27.39V26.08h0L28,19.42l-1.5-.86-10,5.8V23.05h0l8.91-5.15L23.91,17l-7.42,4.28V20l6.3-3.63h0a3,3,0,0,0-3,0L15,19.15V33.78l-1.13-.65V19.78l-1.5.86V32.27l-1.13-.65V21.33l-1.5.86v8.59l-1.13-.65V22.86h0a3,3,0,0,0-1.48,2.57V31L19.8,38.29l-1.13.65L7.09,32.28V34l10,5.8L16,40.46,7.09,35.31V37l7.41,4.28L13.34,42,7.1,38.42A3,3,0,0,0,8.6,41l4.74,2.71,12.71-7.34v1.31L14.48,44.37l1.5.87,10.07-5.82v1.31l-8.93,5.16,1.5.86,7.43-4.29v1.32l-6.3,3.64h0a3,3,0,0,0,3,0l3.31-1.91,1.5-.87V33.33h-1a.52.52,0,0,0-.53.51h0v.81l-4.79,2.76-4.8-2.76V29.12h0l4.79-2.77L26,29.12v.82a.53.53,0,0,0,.53.52h1V28.72a.81.81,0,0,0-.4-.7l-4.39-2.53,1.13-.66h0l4.39,2.53a.8.8,0,0,1,.4.7v2.4h1.5V27.2a.78.78,0,0,0-.4-.69L25.38,24l1.14-.65,4.39,2.53a.81.81,0,0,1,.4.7v3.91h1.5V25.68a.83.83,0,0,0-.4-.69L28,22.45l1.13-.65,4.11,2.37a1.39,1.39,0,0,1,.69,1.19Z"/><path class="cls-3" d="M55.2,62.35h1a.52.52,0,0,0,.52-.52h0V57.31a3,3,0,0,0-1.52-2.53L50.4,52,37.72,59.28V58h0l11.54-6.66-1.5-.86-10,5.8V54.94h0l8.92-5.16-1.5-.86L37.72,53.2V51.9L44,48.28h0a3,3,0,0,0-3,0l-4.8,2.77V65.68L35.07,65V51.7l-1.5.86v11.6l-1.1-.65V53.22L31,54.08v8.57L29.87,62V54.73h0a3,3,0,0,0-1.48,2.57v5.56L41,70.18l-1.11.6L28.35,64.17V65.9l10,5.8-1.13.65L28.35,67.2v1.73l7.41,4.28-1.16.68-6.24-3.58a3,3,0,0,0,1.5,2.59l4.74,2.71,12.71-7.34v1.31L35.74,76.26l1.5.87,10.07-5.82v1.31l-8.93,5.16,1.5.86,7.43-4.29v1.3L41,79.29h0a3,3,0,0,0,3,0l3.31-1.91,1.5-.87V65.22h-1a.52.52,0,0,0-.5.54v.83l-4.79,2.72-4.8-2.76V61h0l4.79-2.77L47.3,61v.77a.53.53,0,0,0,.53.52h1V60.61a.81.81,0,0,0-.4-.7L44,57.38l1.13-.66h0l4.39,2.53a.8.8,0,0,1,.4.7v2.4h1.5V59.09a.78.78,0,0,0-.4-.69l-4.4-2.54,1.14-.65,4.41,2.57a.81.81,0,0,1,.4.7v3.87h1.5V57.57a.83.83,0,0,0-.4-.69l-4.4-2.54,1.13-.65,4.11,2.37a1.39,1.39,0,0,1,.69,1.19Z"/><path class="cls-3" d="M12.68,62.35h1a.52.52,0,0,0,.52-.52h0V57.31a3,3,0,0,0-1.52-2.53L7.88,52-4.8,59.28V58h0L6.75,51.31l-1.5-.86-10,5.8V54.94h0l8.87-5.16-1.5-.86L-4.8,53.21v-1.3l6.3-3.63h0a3,3,0,0,0-3,0l-4.8,2.77V65.68L-7.43,65V51.7l-1.5.86v11.6L-10,63.51V53.22l-1.5.86v8.57L-12.63,62V54.73h0a3,3,0,0,0-1.48,2.57v5.56L-1.5,70.18l-1.13.6-11.54-6.61V65.9l10,5.8-1.13.65-8.91-5.15v1.73l7.41,4.28L-8,73.89l-6.24-3.58a3,3,0,0,0,1.5,2.59L-8,75.61,4.79,68.27v1.31L-6.78,76.26l1.5.87L4.79,71.31v1.31l-8.93,5.16,1.5.86,7.43-4.29v1.3l-6.3,3.64h0a3,3,0,0,0,3,0l3.3-1.91,1.5-.87V65.22h-1a.52.52,0,0,0-.5.54v.83L0,69.31l-4.8-2.76V61h0L0,58.24,4.79,61v.77a.53.53,0,0,0,.53.52h1V60.61a.81.81,0,0,0-.4-.7L1.5,57.38l1.13-.66h0L7,59.26a.8.8,0,0,1,.4.7v2.39H8.9V59.09a.78.78,0,0,0-.4-.69L4.12,55.86l1.14-.65,4.39,2.57a.81.81,0,0,1,.4.7v3.87h1.5V57.57a.83.83,0,0,0-.4-.69l-4.4-2.54,1.13-.65L12,56.06a1.39,1.39,0,0,1,.69,1.19Z"/></g></pattern></defs><g id="Layer_2" data-name="Layer 2"><g id="Capa_2" data-name="Capa 2"><rect class="cls-4" width="2000" height="800"/><rect class="cls-5" width="2000" height="800"/></g></g></svg>