<?xml version="1.0" encoding="utf-8"?>
<!-- Generator: Adobe Illustrator 26.0.0, SVG Export Plug-In . SVG Version: 6.00 Build 0)  -->
<svg version="1.1" id="Layer_1" xmlns="http://www.w3.org/2000/svg" xmlns:xlink="http://www.w3.org/1999/xlink" x="0px" y="0px"
	 viewBox="0 0 1080 1080" style="enable-background:new 0 0 1080 1080;" xml:space="preserve">
<style type="text/css">
	.st0{fill:#6C6D70;}
	.st1{fill:#939598;}
	.st2{fill:#808285;}
</style>
<polygon class="st0" points="1007.16,627.75 1007.16,572.17 587.43,330.33 539.59,358.12 "/>
<polygon class="st0" points="1007.16,526.88 1007.16,471.84 674.88,279.92 626.5,307.71 "/>
<polygon class="st0" points="1007.16,426.54 1007.16,371 761.78,229.48 713.95,257.27 "/>
<polygon class="st0" points="1007.16,325.7 1007.16,270.15 849.23,179.07 801.39,206.86 "/>
<polygon class="st1" points="491.21,1052.24 539.59,1080 697.5,988.95 697.5,933.37 "/>
<polygon class="st1" points="404.31,1001.8 452.15,1029.59 696.98,888.11 696.98,832.53 "/>
<polygon class="st1" points="316.86,951.91 365.21,979.15 697.5,787.23 697.5,732.2 "/>
<polygon class="st1" points="229.93,901.47 229.93,901.47 277.76,929.26 696.98,686.9 696.98,631.35 "/>
<polygon class="st1" points="849.23,179.07 800.88,151.28 381.66,393.62 381.66,449.19 "/>
<polygon class="st1" points="761.78,128.63 713.95,100.85 381.66,292.77 381.66,348.35 "/>
<polygon class="st1" points="674.88,78.23 626.5,50.44 381.66,191.92 381.66,247.5 "/>
<polygon class="st1" points="587.43,27.79 539.59,0 381.66,91.08 381.66,146.66 "/>
<polygon class="st2" points="696.98,449.19 696.98,988.95 745.33,961.16 745.33,476.98 697.5,449.19 "/>
<polygon class="st2" points="784.43,938.51 832.27,910.72 832.27,526.88 784.43,499.63 "/>
<polygon class="st2" points="871.88,888.11 919.72,860.83 919.72,577.32 871.88,549.53 "/>
<polygon class="st2" points="958.81,838.18 1007.16,810.39 1007.16,627.75 958.81,599.96 "/>
<polygon class="st2" points="119.83,242.36 71.99,270.15 71.99,452.28 119.83,480.07 "/>
<polygon class="st2" points="207.28,191.92 159.44,219.71 159.44,502.72 207.28,530.51 "/>
<polygon class="st2" points="294.21,141.52 246.37,169.28 246.37,553.12 294.21,580.91 "/>
<polygon class="st2" points="381.66,91.08 333.82,118.87 333.82,603.56 381.66,631.35 "/>
<polygon class="st0" points="71.99,754.81 71.99,809.88 229.93,901.47 277.76,873.68 "/>
<polygon class="st0" points="71.99,653.97 71.99,709.55 316.86,851.03 365.21,823.28 "/>
<polygon class="st0" points="71.99,553.12 71.99,608.7 404.31,800.63 452.15,772.84 "/>
<polygon class="st0" points="71.99,452.28 71.99,507.86 491.21,750.19 539.59,722.4 "/>
</svg>
